<?xml version="1.0" standalone="no"?><svg xmlns:xlink="http://www.w3.org/1999/xlink" xmlns="http://www.w3.org/2000/svg" viewBox="0 0 1000 619.0535543645352" preserveAspectRatio="xMaxYMax slice"><g transform="scale(1.3849072804575733)"><rect x="0" y="0" width="722.0769230769231" height="447" fill="#ffffff"/><rect x="13.75" y="13.75" width="6.88" height="6.88" fill="#ff44e9"/><g transform="translate(13.75,13.75) scale(0.344) rotate(0)"><path d="M10 5L5 0L0 5L5 10L0 15L5 20L10 15L15 20L20 15L15 10L20 5L15 0L10 5Z" fill="#ff89f1"/></g><rect x="116.90769230769232" y="13.753846153846155" width="6.876923076923077" height="6.876923076923077" fill="#ffffff"/><rect x="120.35" y="13.75" width="3.44" height="3.44" fill="#ffc0f8"/><g transform="translate(120.35,13.75) scale(0.172) rotate(0)"><path d="M10 5L5 0L0 5L5 10L0 15L5 20L10 15L15 20L20 15L15 10L20 5L15 0L10 5Z" fill="#97d0fe"/></g><rect x="151.29" y="13.75" width="6.88" height="6.88" fill="#ff6bee"/><g transform="translate(151.29,13.75) scale(0.344) rotate(0)"><path fill-rule="evenodd" clip-rule="evenodd" d="M10 20C15.5228 20 20 15.5228 20 10C20 4.47715 15.5228 0 10 0C4.47715 0 0 4.47715 0 10C0 15.5228 4.47715 20 10 20ZM10 17C13.866 17 17 13.866 17 10C17 6.13401 13.866 3 10 3C6.13401 3 3 6.13401 3 10C3 13.866 6.13401 17 10 17Z" fill="#fff8fe"/></g><rect x="185.68" y="13.75" width="6.88" height="6.88" fill="#f6fbff"/><g transform="translate(185.68,13.75) scale(0.344) rotate(0)"><path d="M10 5L5 0L0 5L5 10L0 15L5 20L10 15L15 20L20 15L15 10L20 5L15 0L10 5Z" fill="#ff35e7"/></g><rect x="220.06" y="13.75" width="6.88" height="6.88" fill="#ff9bf3"/><g transform="translate(220.06,13.75) scale(0.344) rotate(0)"><path fill-rule="evenodd" clip-rule="evenodd" d="M10 20C15.5228 20 20 15.5228 20 10C20 4.47715 15.5228 0 10 0C4.47715 0 0 4.47715 0 10C0 15.5228 4.47715 20 10 20ZM10 17C13.866 17 17 13.866 17 10C17 6.13401 13.866 3 10 3C6.13401 3 3 6.13401 3 10C3 13.866 6.13401 17 10 17Z" fill="#82c7fd"/></g><rect x="288.83076923076925" y="13.753846153846155" width="6.876923076923077" height="6.876923076923077" fill="#ffffff"/><rect x="288.83" y="13.75" width="3.44" height="3.44" fill="#b9dffe"/><g transform="translate(288.83,13.75) scale(0.172) rotate(0)"><path d="M10 5L5 0L0 5L5 10L0 15L5 20L10 15L15 20L20 15L15 10L20 5L15 0L10 5Z" fill="#ff79ef"/></g><rect x="292.27" y="13.75" width="3.44" height="3.44" fill="#ffbef7"/><g transform="translate(292.27,13.75) scale(0.172) rotate(0)"><path d="M10 5L5 0L0 5L5 10L0 15L5 20L10 15L15 20L20 15L15 10L20 5L15 0L10 5Z" fill="#ff59ec"/></g><rect x="357.6" y="13.75" width="6.88" height="6.88" fill="#96d0fe"/><g transform="translate(357.6,13.75) scale(0.344) rotate(0)"><path fill-rule="evenodd" clip-rule="evenodd" d="M10 20C15.5228 20 20 15.5228 20 10C20 4.47715 15.5228 0 10 0C4.47715 0 0 4.47715 0 10C0 15.5228 4.47715 20 10 20ZM10 17C13.866 17 17 13.866 17 10C17 6.13401 13.866 3 10 3C6.13401 3 3 6.13401 3 10C3 13.866 6.13401 17 10 17Z" fill="#fffcff"/></g><rect x="391.98" y="13.75" width="6.88" height="6.88" fill="#ff7ef0"/><g transform="translate(391.98,13.75) scale(0.344) rotate(0)"><path fill-rule="evenodd" clip-rule="evenodd" d="M10 20C15.5228 20 20 15.5228 20 10C20 4.47715 15.5228 0 10 0C4.47715 0 0 4.47715 0 10C0 15.5228 4.47715 20 10 20ZM10 17C13.866 17 17 13.866 17 10C17 6.13401 13.866 3 10 3C6.13401 3 3 6.13401 3 10C3 13.866 6.13401 17 10 17Z" fill="#ff88f1"/></g><rect x="426.37" y="13.75" width="6.88" height="6.88" fill="#cae7fe"/><g transform="translate(426.37,13.75) scale(0.344) rotate(0)"><path fill-rule="evenodd" clip-rule="evenodd" d="M10 20C15.5228 20 20 15.5228 20 10C20 4.47715 15.5228 0 10 0C4.47715 0 0 4.47715 0 10C0 15.5228 4.47715 20 10 20ZM10 17C13.866 17 17 13.866 17 10C17 6.13401 13.866 3 10 3C6.13401 3 3 6.13401 3 10C3 13.866 6.13401 17 10 17Z" fill="#ffbbf7"/></g><rect x="460.75" y="13.75" width="6.88" height="6.88" fill="#ffbcf7"/><g transform="translate(460.75,13.75) scale(0.344) rotate(0)"><path d="M10 5L5 0L0 5L5 10L0 15L5 20L10 15L15 20L20 15L15 10L20 5L15 0L10 5Z" fill="#fffbff"/></g><rect x="495.14" y="13.75" width="6.88" height="6.88" fill="#ffadf5"/><g transform="translate(495.14,13.75) scale(0.344) rotate(0)"><path d="M10 5L5 0L0 5L5 10L0 15L5 20L10 15L15 20L20 15L15 10L20 5L15 0L10 5Z" fill="#ffe7fc"/></g><rect x="563.9076923076923" y="13.753846153846155" width="6.876923076923077" height="6.876923076923077" fill="#ffffff"/><rect x="563.91" y="13.75" width="3.44" height="3.44" fill="#ff69ed"/><g transform="translate(563.91,13.75) scale(0.172) rotate(0)"><path d="M10 5L5 0L0 5L5 10L0 15L5 20L10 15L15 20L20 15L15 10L20 5L15 0L10 5Z" fill="#7dc4fd"/></g><rect x="567.35" y="17.19" width="3.44" height="3.44" fill="#ff3ae8"/><g transform="translate(567.35,17.19) scale(0.172) rotate(0)"><path fill-rule="evenodd" clip-rule="evenodd" d="M10 20C15.5228 20 20 15.5228 20 10C20 4.47715 15.5228 0 10 0C4.47715 0 0 4.47715 0 10C0 15.5228 4.47715 20 10 20ZM10 17C13.866 17 17 13.866 17 10C17 6.13401 13.866 3 10 3C6.13401 3 3 6.13401 3 10C3 13.866 6.13401 17 10 17Z" fill="#ff4dea"/></g><rect x="632.68" y="13.75" width="6.88" height="6.88" fill="#b4ddfe"/><g transform="translate(632.68,13.75) scale(0.344) rotate(0)"><path d="M10 5L5 0L0 5L5 10L0 15L5 20L10 15L15 20L20 15L15 10L20 5L15 0L10 5Z" fill="#ff3ae8"/></g><rect x="701.446153846154" y="13.753846153846155" width="6.876923076923077" height="6.876923076923077" fill="#ffffff"/><rect x="701.45" y="17.19" width="3.44" height="3.44" fill="#afdbfe"/><g transform="translate(701.45,17.19) scale(0.172) rotate(0)"><path fill-rule="evenodd" clip-rule="evenodd" d="M10 20C15.5228 20 20 15.5228 20 10C20 4.47715 15.5228 0 10 0C4.47715 0 0 4.47715 0 10C0 15.5228 4.47715 20 10 20ZM10 17C13.866 17 17 13.866 17 10C17 6.13401 13.866 3 10 3C6.13401 3 3 6.13401 3 10C3 13.866 6.13401 17 10 17Z" fill="#d7edfe"/></g><rect x="704.88" y="17.19" width="3.44" height="3.44" fill="#ff4aea"/><g transform="translate(704.88,17.19) scale(0.172) rotate(0)"><path fill-rule="evenodd" clip-rule="evenodd" d="M10 20C15.5228 20 20 15.5228 20 10C20 4.47715 15.5228 0 10 0C4.47715 0 0 4.47715 0 10C0 15.5228 4.47715 20 10 20ZM10 17C13.866 17 17 13.866 17 10C17 6.13401 13.866 3 10 3C6.13401 3 3 6.13401 3 10C3 13.866 6.13401 17 10 17Z" fill="#a9d8fe"/></g><rect x="46.87" y="46.87" width="9.42" height="9.42" fill="#eef7ff"/><g transform="translate(46.87,46.87) scale(0.471) rotate(0)"><path d="M10 5L5 0L0 5L5 10L0 15L5 20L10 15L15 20L20 15L15 10L20 5L15 0L10 5Z" fill="#b8dffe"/></g><rect x="81.25" y="46.87" width="9.42" height="9.42" fill="#ffebfd"/><g transform="translate(81.25,46.87) scale(0.471) rotate(0)"><path d="M10 5L5 0L0 5L5 10L0 15L5 20L10 15L15 20L20 15L15 10L20 5L15 0L10 5Z" fill="#fff0fd"/></g><rect x="115.64" y="46.87" width="9.42" height="9.42" fill="#c1e3fe"/><g transform="translate(115.64,46.87) scale(0.471) rotate(0)"><path d="M10 5L5 0L0 5L5 10L0 15L5 20L10 15L15 20L20 15L15 10L20 5L15 0L10 5Z" fill="#a8d8fe"/></g><rect x="287.56118343195266" y="46.86887573964498" width="9.416094674556213" height="9.416094674556213" fill="#ffffff"/><rect x="287.56" y="46.87" width="4.71" height="4.71" fill="#ff6aed"/><g transform="translate(287.56,46.87) scale(0.2355) rotate(0)"><path d="M10 5L5 0L0 5L5 10L0 15L5 20L10 15L15 20L20 15L15 10L20 5L15 0L10 5Z" fill="#ff4cea"/></g><rect x="292.27" y="46.87" width="4.71" height="4.71" fill="#ff36e7"/><g transform="translate(292.27,46.87) scale(0.2355) rotate(0)"><path d="M10 5L5 0L0 5L5 10L0 15L5 20L10 15L15 20L20 15L15 10L20 5L15 0L10 5Z" fill="#79c3fd"/></g><rect x="287.56" y="51.58" width="4.71" height="4.71" fill="#7bc4fd"/><g transform="translate(287.56,51.58) scale(0.2355) rotate(0)"><path fill-rule="evenodd" clip-rule="evenodd" d="M10 20C15.5228 20 20 15.5228 20 10C20 4.47715 15.5228 0 10 0C4.47715 0 0 4.47715 0 10C0 15.5228 4.47715 20 10 20ZM10 17C13.866 17 17 13.866 17 10C17 6.13401 13.866 3 10 3C6.13401 3 3 6.13401 3 10C3 13.866 6.13401 17 10 17Z" fill="#ff57eb"/></g><rect x="321.945798816568" y="46.86887573964498" width="9.416094674556213" height="9.416094674556213" fill="#ffffff"/><rect x="321.95" y="46.87" width="4.71" height="4.71" fill="#ffaef5"/><g transform="translate(321.95,46.87) scale(0.2355) rotate(0)"><path d="M10 5L5 0L0 5L5 10L0 15L5 20L10 15L15 20L20 15L15 10L20 5L15 0L10 5Z" fill="#ffbff7"/></g><rect x="326.65" y="46.87" width="4.71" height="4.71" fill="#ffccf9"/><g transform="translate(326.65,46.87) scale(0.2355) rotate(0)"><path d="M10 5L5 0L0 5L5 10L0 15L5 20L10 15L15 20L20 15L15 10L20 5L15 0L10 5Z" fill="#ffcef9"/></g><rect x="321.95" y="51.58" width="4.71" height="4.71" fill="#ffe6fc"/><g transform="translate(321.95,51.58) scale(0.2355) rotate(0)"><path fill-rule="evenodd" clip-rule="evenodd" d="M10 20C15.5228 20 20 15.5228 20 10C20 4.47715 15.5228 0 10 0C4.47715 0 0 4.47715 0 10C0 15.5228 4.47715 20 10 20ZM10 17C13.866 17 17 13.866 17 10C17 6.13401 13.866 3 10 3C6.13401 3 3 6.13401 3 10C3 13.866 6.13401 17 10 17Z" fill="#ffd6fa"/></g><rect x="356.33" y="46.87" width="9.42" height="9.42" fill="#7cc4fd"/><g transform="translate(356.33,46.87) scale(0.471) rotate(0)"><path fill-rule="evenodd" clip-rule="evenodd" d="M10 20C15.5228 20 20 15.5228 20 10C20 4.47715 15.5228 0 10 0C4.47715 0 0 4.47715 0 10C0 15.5228 4.47715 20 10 20ZM10 17C13.866 17 17 13.866 17 10C17 6.13401 13.866 3 10 3C6.13401 3 3 6.13401 3 10C3 13.866 6.13401 17 10 17Z" fill="#ff96f3"/></g><rect x="390.72" y="46.87" width="9.42" height="9.42" fill="#ff4dea"/><g transform="translate(390.72,46.87) scale(0.471) rotate(0)"><path d="M10 5L5 0L0 5L5 10L0 15L5 20L10 15L15 20L20 15L15 10L20 5L15 0L10 5Z" fill="#ff4eea"/></g><rect x="493.87" y="46.87" width="9.42" height="9.42" fill="#e3f2ff"/><g transform="translate(493.87,46.87) scale(0.471) rotate(0)"><path fill-rule="evenodd" clip-rule="evenodd" d="M10 20C15.5228 20 20 15.5228 20 10C20 4.47715 15.5228 0 10 0C4.47715 0 0 4.47715 0 10C0 15.5228 4.47715 20 10 20ZM10 17C13.866 17 17 13.866 17 10C17 6.13401 13.866 3 10 3C6.13401 3 3 6.13401 3 10C3 13.866 6.13401 17 10 17Z" fill="#eef7ff"/></g><rect x="528.2534911242604" y="46.86887573964498" width="9.416094674556213" height="9.416094674556213" fill="#ffffff"/><rect x="528.25" y="46.87" width="4.71" height="4.71" fill="#ff4dea"/><g transform="translate(528.25,46.87) scale(0.2355) rotate(0)"><path d="M10 5L5 0L0 5L5 10L0 15L5 20L10 15L15 20L20 15L15 10L20 5L15 0L10 5Z" fill="#c4e5fe"/></g><rect x="532.96" y="46.87" width="4.71" height="4.71" fill="#ff5aec"/><g transform="translate(532.96,46.87) scale(0.2355) rotate(0)"><path fill-rule="evenodd" clip-rule="evenodd" d="M10 20C15.5228 20 20 15.5228 20 10C20 4.47715 15.5228 0 10 0C4.47715 0 0 4.47715 0 10C0 15.5228 4.47715 20 10 20ZM10 17C13.866 17 17 13.866 17 10C17 6.13401 13.866 3 10 3C6.13401 3 3 6.13401 3 10C3 13.866 6.13401 17 10 17Z" fill="#b9dffe"/></g><rect x="528.25" y="51.58" width="4.71" height="4.71" fill="#a2d5fe"/><g transform="translate(528.25,51.58) scale(0.2355) rotate(0)"><path fill-rule="evenodd" clip-rule="evenodd" d="M10 20C15.5228 20 20 15.5228 20 10C20 4.47715 15.5228 0 10 0C4.47715 0 0 4.47715 0 10C0 15.5228 4.47715 20 10 20ZM10 17C13.866 17 17 13.866 17 10C17 6.13401 13.866 3 10 3C6.13401 3 3 6.13401 3 10C3 13.866 6.13401 17 10 17Z" fill="#bee2fe"/></g><rect x="532.96" y="51.58" width="4.71" height="4.71" fill="#ffeafc"/><g transform="translate(532.96,51.58) scale(0.2355) rotate(0)"><path d="M10 5L5 0L0 5L5 10L0 15L5 20L10 15L15 20L20 15L15 10L20 5L15 0L10 5Z" fill="#fffcff"/></g><rect x="597.02" y="46.87" width="9.42" height="9.42" fill="#88c9fd"/><g transform="translate(597.02,46.87) scale(0.471) rotate(0)"><path d="M10 5L5 0L0 5L5 10L0 15L5 20L10 15L15 20L20 15L15 10L20 5L15 0L10 5Z" fill="#eaf5ff"/></g><rect x="665.79" y="46.87" width="9.42" height="9.42" fill="#a0d4fe"/><g transform="translate(665.79,46.87) scale(0.471) rotate(0)"><path fill-rule="evenodd" clip-rule="evenodd" d="M10 20C15.5228 20 20 15.5228 20 10C20 4.47715 15.5228 0 10 0C4.47715 0 0 4.47715 0 10C0 15.5228 4.47715 20 10 20ZM10 17C13.866 17 17 13.866 17 10C17 6.13401 13.866 3 10 3C6.13401 3 3 6.13401 3 10C3 13.866 6.13401 17 10 17Z" fill="#ff87f1"/></g><rect x="11.21" y="79.98" width="11.96" height="11.96" fill="#ff41e9"/><g transform="translate(11.21,79.98) scale(0.5980000000000001) rotate(0)"><path fill-rule="evenodd" clip-rule="evenodd" d="M10 20C15.5228 20 20 15.5228 20 10C20 4.47715 15.5228 0 10 0C4.47715 0 0 4.47715 0 10C0 15.5228 4.47715 20 10 20ZM10 17C13.866 17 17 13.866 17 10C17 6.13401 13.866 3 10 3C6.13401 3 3 6.13401 3 10C3 13.866 6.13401 17 10 17Z" fill="#cce8fe"/></g><rect x="45.6" y="79.98" width="11.96" height="11.96" fill="#ff50ea"/><g transform="translate(45.6,79.98) scale(0.5980000000000001) rotate(0)"><path fill-rule="evenodd" clip-rule="evenodd" d="M10 20C15.5228 20 20 15.5228 20 10C20 4.47715 15.5228 0 10 0C4.47715 0 0 4.47715 0 10C0 15.5228 4.47715 20 10 20ZM10 17C13.866 17 17 13.866 17 10C17 6.13401 13.866 3 10 3C6.13401 3 3 6.13401 3 10C3 13.866 6.13401 17 10 17Z" fill="#fff5fe"/></g><rect x="114.37" y="79.98" width="11.96" height="11.96" fill="#ff81f0"/><g transform="translate(114.37,79.98) scale(0.5980000000000001) rotate(0)"><path d="M10 5L5 0L0 5L5 10L0 15L5 20L10 15L15 20L20 15L15 10L20 5L15 0L10 5Z" fill="#90cdfe"/></g><rect x="183.14" y="79.98" width="11.96" height="11.96" fill="#64b9fd"/><g transform="translate(183.14,79.98) scale(0.5980000000000001) rotate(0)"><path d="M10 5L5 0L0 5L5 10L0 15L5 20L10 15L15 20L20 15L15 10L20 5L15 0L10 5Z" fill="#ffd2fa"/></g><rect x="251.90698224852073" y="79.9839053254438" width="11.955266272189348" height="11.955266272189348" fill="#ffffff"/><rect x="257.88" y="79.98" width="5.98" height="5.98" fill="#afdbfe"/><g transform="translate(257.88,79.98) scale(0.29900000000000004) rotate(0)"><path d="M10 5L5 0L0 5L5 10L0 15L5 20L10 15L15 20L20 15L15 10L20 5L15 0L10 5Z" fill="#95cffe"/></g><rect x="251.91" y="85.96" width="5.98" height="5.98" fill="#ffb1f6"/><g transform="translate(251.91,85.96) scale(0.29900000000000004) rotate(0)"><path d="M10 5L5 0L0 5L5 10L0 15L5 20L10 15L15 20L20 15L15 10L20 5L15 0L10 5Z" fill="#e5f3ff"/></g><rect x="257.88" y="85.96" width="5.98" height="5.98" fill="#fbfdff"/><g transform="translate(257.88,85.96) scale(0.29900000000000004) rotate(0)"><path fill-rule="evenodd" clip-rule="evenodd" d="M10 20C15.5228 20 20 15.5228 20 10C20 4.47715 15.5228 0 10 0C4.47715 0 0 4.47715 0 10C0 15.5228 4.47715 20 10 20ZM10 17C13.866 17 17 13.866 17 10C17 6.13401 13.866 3 10 3C6.13401 3 3 6.13401 3 10C3 13.866 6.13401 17 10 17Z" fill="#80c5fd"/></g><rect x="286.29" y="79.98" width="11.96" height="11.96" fill="#ffa1f4"/><g transform="translate(286.29,79.98) scale(0.5980000000000001) rotate(0)"><path d="M10 5L5 0L0 5L5 10L0 15L5 20L10 15L15 20L20 15L15 10L20 5L15 0L10 5Z" fill="#d9eeff"/></g><rect x="320.68" y="79.98" width="11.96" height="11.96" fill="#fafdff"/><g transform="translate(320.68,79.98) scale(0.5980000000000001) rotate(0)"><path d="M10 5L5 0L0 5L5 10L0 15L5 20L10 15L15 20L20 15L15 10L20 5L15 0L10 5Z" fill="#90cdfe"/></g><rect x="355.06" y="79.98" width="11.96" height="11.96" fill="#ff42e9"/><g transform="translate(355.06,79.98) scale(0.5980000000000001) rotate(0)"><path d="M10 5L5 0L0 5L5 10L0 15L5 20L10 15L15 20L20 15L15 10L20 5L15 0L10 5Z" fill="#ff64ed"/></g><rect x="423.83" y="79.98" width="11.96" height="11.96" fill="#ff92f2"/><g transform="translate(423.83,79.98) scale(0.5980000000000001) rotate(0)"><path fill-rule="evenodd" clip-rule="evenodd" d="M10 20C15.5228 20 20 15.5228 20 10C20 4.47715 15.5228 0 10 0C4.47715 0 0 4.47715 0 10C0 15.5228 4.47715 20 10 20ZM10 17C13.866 17 17 13.866 17 10C17 6.13401 13.866 3 10 3C6.13401 3 3 6.13401 3 10C3 13.866 6.13401 17 10 17Z" fill="#c8e6fe"/></g><rect x="458.21" y="79.98" width="11.96" height="11.96" fill="#9ad1fe"/><g transform="translate(458.21,79.98) scale(0.5980000000000001) rotate(0)"><path d="M10 5L5 0L0 5L5 10L0 15L5 20L10 15L15 20L20 15L15 10L20 5L15 0L10 5Z" fill="#ff6eee"/></g><rect x="492.6" y="79.98" width="11.96" height="11.96" fill="#7dc4fd"/><g transform="translate(492.6,79.98) scale(0.5980000000000001) rotate(0)"><path fill-rule="evenodd" clip-rule="evenodd" d="M10 20C15.5228 20 20 15.5228 20 10C20 4.47715 15.5228 0 10 0C4.47715 0 0 4.47715 0 10C0 15.5228 4.47715 20 10 20ZM10 17C13.866 17 17 13.866 17 10C17 6.13401 13.866 3 10 3C6.13401 3 3 6.13401 3 10C3 13.866 6.13401 17 10 17Z" fill="#fff0fd"/></g><rect x="526.98" y="79.98" width="11.96" height="11.96" fill="#ffbdf7"/><g transform="translate(526.98,79.98) scale(0.5980000000000001) rotate(0)"><path fill-rule="evenodd" clip-rule="evenodd" d="M10 20C15.5228 20 20 15.5228 20 10C20 4.47715 15.5228 0 10 0C4.47715 0 0 4.47715 0 10C0 15.5228 4.47715 20 10 20ZM10 17C13.866 17 17 13.866 17 10C17 6.13401 13.866 3 10 3C6.13401 3 3 6.13401 3 10C3 13.866 6.13401 17 10 17Z" fill="#8acafe"/></g><rect x="561.3685207100592" y="79.9839053254438" width="11.955266272189348" height="11.955266272189348" fill="#ffffff"/><rect x="567.35" y="79.98" width="5.98" height="5.98" fill="#ffc4f8"/><g transform="translate(567.35,79.98) scale(0.29900000000000004) rotate(0)"><path d="M10 5L5 0L0 5L5 10L0 15L5 20L10 15L15 20L20 15L15 10L20 5L15 0L10 5Z" fill="#ff56eb"/></g><rect x="561.37" y="85.96" width="5.98" height="5.98" fill="#94cffe"/><g transform="translate(561.37,85.96) scale(0.29900000000000004) rotate(0)"><path fill-rule="evenodd" clip-rule="evenodd" d="M10 20C15.5228 20 20 15.5228 20 10C20 4.47715 15.5228 0 10 0C4.47715 0 0 4.47715 0 10C0 15.5228 4.47715 20 10 20ZM10 17C13.866 17 17 13.866 17 10C17 6.13401 13.866 3 10 3C6.13401 3 3 6.13401 3 10C3 13.866 6.13401 17 10 17Z" fill="#ff90f2"/></g><rect x="595.75" y="79.98" width="11.96" height="11.96" fill="#91cdfe"/><g transform="translate(595.75,79.98) scale(0.5980000000000001) rotate(0)"><path d="M10 5L5 0L0 5L5 10L0 15L5 20L10 15L15 20L20 15L15 10L20 5L15 0L10 5Z" fill="#f7fcff"/></g><rect x="664.52" y="79.98" width="11.96" height="11.96" fill="#ff56eb"/><g transform="translate(664.52,79.98) scale(0.5980000000000001) rotate(0)"><path d="M10 5L5 0L0 5L5 10L0 15L5 20L10 15L15 20L20 15L15 10L20 5L15 0L10 5Z" fill="#a5d6fe"/></g><rect x="698.9069822485208" y="79.9839053254438" width="11.955266272189348" height="11.955266272189348" fill="#ffffff"/><rect x="704.88" y="79.98" width="5.98" height="5.98" fill="#ffe3fc"/><g transform="translate(704.88,79.98) scale(0.29900000000000004) rotate(0)"><path fill-rule="evenodd" clip-rule="evenodd" d="M10 20C15.5228 20 20 15.5228 20 10C20 4.47715 15.5228 0 10 0C4.47715 0 0 4.47715 0 10C0 15.5228 4.47715 20 10 20ZM10 17C13.866 17 17 13.866 17 10C17 6.13401 13.866 3 10 3C6.13401 3 3 6.13401 3 10C3 13.866 6.13401 17 10 17Z" fill="#fff7fe"/></g><rect x="698.91" y="85.96" width="5.98" height="5.98" fill="#ffddfb"/><g transform="translate(698.91,85.96) scale(0.29900000000000004) rotate(0)"><path fill-rule="evenodd" clip-rule="evenodd" d="M10 20C15.5228 20 20 15.5228 20 10C20 4.47715 15.5228 0 10 0C4.47715 0 0 4.47715 0 10C0 15.5228 4.47715 20 10 20ZM10 17C13.866 17 17 13.866 17 10C17 6.13401 13.866 3 10 3C6.13401 3 3 6.13401 3 10C3 13.866 6.13401 17 10 17Z" fill="#ff35e7"/></g><rect x="9.945088757396451" y="113.09893491124261" width="14.494437869822484" height="14.494437869822484" fill="#ffffff"/><rect x="9.95" y="113.1" width="7.25" height="7.25" fill="#d3ebfe"/><g transform="translate(9.95,113.1) scale(0.3625) rotate(0)"><path d="M10 5L5 0L0 5L5 10L0 15L5 20L10 15L15 20L20 15L15 10L20 5L15 0L10 5Z" fill="#cae7fe"/></g><rect x="9.95" y="120.35" width="7.25" height="7.25" fill="#89cafe"/><g transform="translate(9.95,120.35) scale(0.3625) rotate(0)"><path fill-rule="evenodd" clip-rule="evenodd" d="M10 20C15.5228 20 20 15.5228 20 10C20 4.47715 15.5228 0 10 0C4.47715 0 0 4.47715 0 10C0 15.5228 4.47715 20 10 20ZM10 17C13.866 17 17 13.866 17 10C17 6.13401 13.866 3 10 3C6.13401 3 3 6.13401 3 10C3 13.866 6.13401 17 10 17Z" fill="#90cdfe"/></g><rect x="17.19" y="120.35" width="7.25" height="7.25" fill="#ffbdf7"/><g transform="translate(17.19,120.35) scale(0.3625) rotate(0)"><path d="M10 5L5 0L0 5L5 10L0 15L5 20L10 15L15 20L20 15L15 10L20 5L15 0L10 5Z" fill="#addafe"/></g><rect x="44.33" y="113.1" width="14.49" height="14.49" fill="#6ebdfd"/><g transform="translate(44.33,113.1) scale(0.7245) rotate(0)"><path fill-rule="evenodd" clip-rule="evenodd" d="M10 20C15.5228 20 20 15.5228 20 10C20 4.47715 15.5228 0 10 0C4.47715 0 0 4.47715 0 10C0 15.5228 4.47715 20 10 20ZM10 17C13.866 17 17 13.866 17 10C17 6.13401 13.866 3 10 3C6.13401 3 3 6.13401 3 10C3 13.866 6.13401 17 10 17Z" fill="#fff2fd"/></g><rect x="78.71" y="113.1" width="14.49" height="14.49" fill="#ff3de8"/><g transform="translate(78.71,113.1) scale(0.7245) rotate(0)"><path fill-rule="evenodd" clip-rule="evenodd" d="M10 20C15.5228 20 20 15.5228 20 10C20 4.47715 15.5228 0 10 0C4.47715 0 0 4.47715 0 10C0 15.5228 4.47715 20 10 20ZM10 17C13.866 17 17 13.866 17 10C17 6.13401 13.866 3 10 3C6.13401 3 3 6.13401 3 10C3 13.866 6.13401 17 10 17Z" fill="#8bcafe"/></g><rect x="113.1" y="113.1" width="14.49" height="14.49" fill="#80c6fd"/><g transform="translate(113.1,113.1) scale(0.7245) rotate(0)"><path fill-rule="evenodd" clip-rule="evenodd" d="M10 20C15.5228 20 20 15.5228 20 10C20 4.47715 15.5228 0 10 0C4.47715 0 0 4.47715 0 10C0 15.5228 4.47715 20 10 20ZM10 17C13.866 17 17 13.866 17 10C17 6.13401 13.866 3 10 3C6.13401 3 3 6.13401 3 10C3 13.866 6.13401 17 10 17Z" fill="#ff59eb"/></g><rect x="147.48" y="113.1" width="14.49" height="14.49" fill="#ff98f3"/><g transform="translate(147.48,113.1) scale(0.7245) rotate(0)"><path fill-rule="evenodd" clip-rule="evenodd" d="M10 20C15.5228 20 20 15.5228 20 10C20 4.47715 15.5228 0 10 0C4.47715 0 0 4.47715 0 10C0 15.5228 4.47715 20 10 20ZM10 17C13.866 17 17 13.866 17 10C17 6.13401 13.866 3 10 3C6.13401 3 3 6.13401 3 10C3 13.866 6.13401 17 10 17Z" fill="#ff6eee"/></g><rect x="181.87" y="113.1" width="14.49" height="14.49" fill="#e7f4ff"/><g transform="translate(181.87,113.1) scale(0.7245) rotate(0)"><path d="M10 5L5 0L0 5L5 10L0 15L5 20L10 15L15 20L20 15L15 10L20 5L15 0L10 5Z" fill="#9ad1fe"/></g><rect x="216.25" y="113.1" width="14.49" height="14.49" fill="#dcefff"/><g transform="translate(216.25,113.1) scale(0.7245) rotate(0)"><path d="M10 5L5 0L0 5L5 10L0 15L5 20L10 15L15 20L20 15L15 10L20 5L15 0L10 5Z" fill="#ffe9fc"/></g><rect x="250.63739644970417" y="113.09893491124261" width="14.494437869822484" height="14.494437869822484" fill="#ffffff"/><rect x="257.88" y="113.1" width="7.25" height="7.25" fill="#abd9fe"/><g transform="translate(257.88,113.1) scale(0.3625) rotate(0)"><path fill-rule="evenodd" clip-rule="evenodd" d="M10 20C15.5228 20 20 15.5228 20 10C20 4.47715 15.5228 0 10 0C4.47715 0 0 4.47715 0 10C0 15.5228 4.47715 20 10 20ZM10 17C13.866 17 17 13.866 17 10C17 6.13401 13.866 3 10 3C6.13401 3 3 6.13401 3 10C3 13.866 6.13401 17 10 17Z" fill="#ff3de8"/></g><rect x="250.64" y="120.35" width="7.25" height="7.25" fill="#72bffd"/><g transform="translate(250.64,120.35) scale(0.3625) rotate(0)"><path fill-rule="evenodd" clip-rule="evenodd" d="M10 20C15.5228 20 20 15.5228 20 10C20 4.47715 15.5228 0 10 0C4.47715 0 0 4.47715 0 10C0 15.5228 4.47715 20 10 20ZM10 17C13.866 17 17 13.866 17 10C17 6.13401 13.866 3 10 3C6.13401 3 3 6.13401 3 10C3 13.866 6.13401 17 10 17Z" fill="#d2ebfe"/></g><rect x="257.88" y="120.35" width="7.25" height="7.25" fill="#fbfdff"/><g transform="translate(257.88,120.35) scale(0.3625) rotate(0)"><path fill-rule="evenodd" clip-rule="evenodd" d="M10 20C15.5228 20 20 15.5228 20 10C20 4.47715 15.5228 0 10 0C4.47715 0 0 4.47715 0 10C0 15.5228 4.47715 20 10 20ZM10 17C13.866 17 17 13.866 17 10C17 6.13401 13.866 3 10 3C6.13401 3 3 6.13401 3 10C3 13.866 6.13401 17 10 17Z" fill="#a0d4fe"/></g><rect x="285.0220118343195" y="113.09893491124261" width="14.494437869822484" height="14.494437869822484" fill="#ffffff"/><rect x="292.27" y="113.1" width="7.25" height="7.25" fill="#9fd3fe"/><g transform="translate(292.27,113.1) scale(0.3625) rotate(0)"><path d="M10 5L5 0L0 5L5 10L0 15L5 20L10 15L15 20L20 15L15 10L20 5L15 0L10 5Z" fill="#ffe3fc"/></g><rect x="292.27" y="120.35" width="7.25" height="7.25" fill="#fff1fd"/><g transform="translate(292.27,120.35) scale(0.3625) rotate(0)"><path d="M10 5L5 0L0 5L5 10L0 15L5 20L10 15L15 20L20 15L15 10L20 5L15 0L10 5Z" fill="#b0dbfe"/></g><rect x="319.41" y="113.1" width="14.49" height="14.49" fill="#ffd2fa"/><g transform="translate(319.41,113.1) scale(0.7245) rotate(0)"><path d="M10 5L5 0L0 5L5 10L0 15L5 20L10 15L15 20L20 15L15 10L20 5L15 0L10 5Z" fill="#ffdbfb"/></g><rect x="353.79" y="113.1" width="14.49" height="14.49" fill="#c4e4fe"/><g transform="translate(353.79,113.1) scale(0.7245) rotate(0)"><path fill-rule="evenodd" clip-rule="evenodd" d="M10 20C15.5228 20 20 15.5228 20 10C20 4.47715 15.5228 0 10 0C4.47715 0 0 4.47715 0 10C0 15.5228 4.47715 20 10 20ZM10 17C13.866 17 17 13.866 17 10C17 6.13401 13.866 3 10 3C6.13401 3 3 6.13401 3 10C3 13.866 6.13401 17 10 17Z" fill="#ffe8fc"/></g><rect x="388.1758579881657" y="113.09893491124261" width="14.494437869822484" height="14.494437869822484" fill="#ffffff"/><rect x="395.42" y="113.1" width="7.25" height="7.25" fill="#78c2fd"/><g transform="translate(395.42,113.1) scale(0.3625) rotate(0)"><path d="M10 5L5 0L0 5L5 10L0 15L5 20L10 15L15 20L20 15L15 10L20 5L15 0L10 5Z" fill="#cfe9fe"/></g><rect x="388.18" y="120.35" width="7.25" height="7.25" fill="#aedafe"/><g transform="translate(388.18,120.35) scale(0.3625) rotate(0)"><path fill-rule="evenodd" clip-rule="evenodd" d="M10 20C15.5228 20 20 15.5228 20 10C20 4.47715 15.5228 0 10 0C4.47715 0 0 4.47715 0 10C0 15.5228 4.47715 20 10 20ZM10 17C13.866 17 17 13.866 17 10C17 6.13401 13.866 3 10 3C6.13401 3 3 6.13401 3 10C3 13.866 6.13401 17 10 17Z" fill="#ecf7ff"/></g><rect x="395.42" y="120.35" width="7.25" height="7.25" fill="#ffb3f6"/><g transform="translate(395.42,120.35) scale(0.3625) rotate(0)"><path fill-rule="evenodd" clip-rule="evenodd" d="M10 20C15.5228 20 20 15.5228 20 10C20 4.47715 15.5228 0 10 0C4.47715 0 0 4.47715 0 10C0 15.5228 4.47715 20 10 20ZM10 17C13.866 17 17 13.866 17 10C17 6.13401 13.866 3 10 3C6.13401 3 3 6.13401 3 10C3 13.866 6.13401 17 10 17Z" fill="#86c8fd"/></g><rect x="456.95" y="113.1" width="14.49" height="14.49" fill="#ff7df0"/><g transform="translate(456.95,113.1) scale(0.7245) rotate(0)"><path d="M10 5L5 0L0 5L5 10L0 15L5 20L10 15L15 20L20 15L15 10L20 5L15 0L10 5Z" fill="#fafdff"/></g><rect x="525.7143195266273" y="113.09893491124261" width="14.494437869822484" height="14.494437869822484" fill="#ffffff"/><rect x="525.71" y="113.1" width="7.25" height="7.25" fill="#ff4eea"/><g transform="translate(525.71,113.1) scale(0.3625) rotate(0)"><path fill-rule="evenodd" clip-rule="evenodd" d="M10 20C15.5228 20 20 15.5228 20 10C20 4.47715 15.5228 0 10 0C4.47715 0 0 4.47715 0 10C0 15.5228 4.47715 20 10 20ZM10 17C13.866 17 17 13.866 17 10C17 6.13401 13.866 3 10 3C6.13401 3 3 6.13401 3 10C3 13.866 6.13401 17 10 17Z" fill="#91cdfe"/></g><rect x="532.96" y="113.1" width="7.25" height="7.25" fill="#fffdff"/><g transform="translate(532.96,113.1) scale(0.3625) rotate(0)"><path fill-rule="evenodd" clip-rule="evenodd" d="M10 20C15.5228 20 20 15.5228 20 10C20 4.47715 15.5228 0 10 0C4.47715 0 0 4.47715 0 10C0 15.5228 4.47715 20 10 20ZM10 17C13.866 17 17 13.866 17 10C17 6.13401 13.866 3 10 3C6.13401 3 3 6.13401 3 10C3 13.866 6.13401 17 10 17Z" fill="#ffa6f5"/></g><rect x="532.96" y="120.35" width="7.25" height="7.25" fill="#a1d5fe"/><g transform="translate(532.96,120.35) scale(0.3625) rotate(0)"><path d="M10 5L5 0L0 5L5 10L0 15L5 20L10 15L15 20L20 15L15 10L20 5L15 0L10 5Z" fill="#ffffff"/></g><rect x="594.483550295858" y="113.09893491124261" width="14.494437869822484" height="14.494437869822484" fill="#ffffff"/><rect x="594.48" y="113.1" width="7.25" height="7.25" fill="#cbe8fe"/><g transform="translate(594.48,113.1) scale(0.3625) rotate(0)"><path fill-rule="evenodd" clip-rule="evenodd" d="M10 20C15.5228 20 20 15.5228 20 10C20 4.47715 15.5228 0 10 0C4.47715 0 0 4.47715 0 10C0 15.5228 4.47715 20 10 20ZM10 17C13.866 17 17 13.866 17 10C17 6.13401 13.866 3 10 3C6.13401 3 3 6.13401 3 10C3 13.866 6.13401 17 10 17Z" fill="#ffddfb"/></g><rect x="601.73" y="113.1" width="7.25" height="7.25" fill="#67bafd"/><g transform="translate(601.73,113.1) scale(0.3625) rotate(0)"><path fill-rule="evenodd" clip-rule="evenodd" d="M10 20C15.5228 20 20 15.5228 20 10C20 4.47715 15.5228 0 10 0C4.47715 0 0 4.47715 0 10C0 15.5228 4.47715 20 10 20ZM10 17C13.866 17 17 13.866 17 10C17 6.13401 13.866 3 10 3C6.13401 3 3 6.13401 3 10C3 13.866 6.13401 17 10 17Z" fill="#ff4eea"/></g><rect x="594.48" y="120.35" width="7.25" height="7.25" fill="#6dbdfd"/><g transform="translate(594.48,120.35) scale(0.3625) rotate(0)"><path d="M10 5L5 0L0 5L5 10L0 15L5 20L10 15L15 20L20 15L15 10L20 5L15 0L10 5Z" fill="#85c8fd"/></g><rect x="697.64" y="113.1" width="14.49" height="14.49" fill="#ffb6f6"/><g transform="translate(697.64,113.1) scale(0.7245) rotate(0)"><path d="M10 5L5 0L0 5L5 10L0 15L5 20L10 15L15 20L20 15L15 10L20 5L15 0L10 5Z" fill="#d2ebfe"/></g><rect x="8.675502958579882" y="146.21396449704142" width="17.033609467455623" height="17.033609467455623" fill="#ffffff"/><rect x="8.68" y="146.21" width="8.52" height="8.52" fill="#abd9fe"/><g transform="translate(8.68,146.21) scale(0.426) rotate(0)"><path d="M10 5L5 0L0 5L5 10L0 15L5 20L10 15L15 20L20 15L15 10L20 5L15 0L10 5Z" fill="#ff95f3"/></g><rect x="17.19" y="146.21" width="8.52" height="8.52" fill="#ff98f3"/><g transform="translate(17.19,146.21) scale(0.426) rotate(0)"><path d="M10 5L5 0L0 5L5 10L0 15L5 20L10 15L15 20L20 15L15 10L20 5L15 0L10 5Z" fill="#ff6aed"/></g><rect x="8.68" y="154.73" width="8.52" height="8.52" fill="#ecf6ff"/><g transform="translate(8.68,154.73) scale(0.426) rotate(0)"><path fill-rule="evenodd" clip-rule="evenodd" d="M10 20C15.5228 20 20 15.5228 20 10C20 4.47715 15.5228 0 10 0C4.47715 0 0 4.47715 0 10C0 15.5228 4.47715 20 10 20ZM10 17C13.866 17 17 13.866 17 10C17 6.13401 13.866 3 10 3C6.13401 3 3 6.13401 3 10C3 13.866 6.13401 17 10 17Z" fill="#a8d8fe"/></g><rect x="43.06" y="146.21" width="17.03" height="17.03" fill="#6bbcfd"/><g transform="translate(43.06,146.21) scale(0.8515) rotate(0)"><path d="M10 5L5 0L0 5L5 10L0 15L5 20L10 15L15 20L20 15L15 10L20 5L15 0L10 5Z" fill="#ff3ce8"/></g><rect x="146.21" y="146.21" width="17.03" height="17.03" fill="#ff3fe8"/><g transform="translate(146.21,146.21) scale(0.8515) rotate(0)"><path d="M10 5L5 0L0 5L5 10L0 15L5 20L10 15L15 20L20 15L15 10L20 5L15 0L10 5Z" fill="#ff47e9"/></g><rect x="180.6" y="146.21" width="17.03" height="17.03" fill="#73c0fd"/><g transform="translate(180.6,146.21) scale(0.8515) rotate(0)"><path d="M10 5L5 0L0 5L5 10L0 15L5 20L10 15L15 20L20 15L15 10L20 5L15 0L10 5Z" fill="#ff64ed"/></g><rect x="214.98" y="146.21" width="17.03" height="17.03" fill="#ffc4f8"/><g transform="translate(214.98,146.21) scale(0.8515) rotate(0)"><path fill-rule="evenodd" clip-rule="evenodd" d="M10 20C15.5228 20 20 15.5228 20 10C20 4.47715 15.5228 0 10 0C4.47715 0 0 4.47715 0 10C0 15.5228 4.47715 20 10 20ZM10 17C13.866 17 17 13.866 17 10C17 6.13401 13.866 3 10 3C6.13401 3 3 6.13401 3 10C3 13.866 6.13401 17 10 17Z" fill="#bee1fe"/></g><rect x="249.37" y="146.21" width="17.03" height="17.03" fill="#98d0fe"/><g transform="translate(249.37,146.21) scale(0.8515) rotate(0)"><path fill-rule="evenodd" clip-rule="evenodd" d="M10 20C15.5228 20 20 15.5228 20 10C20 4.47715 15.5228 0 10 0C4.47715 0 0 4.47715 0 10C0 15.5228 4.47715 20 10 20ZM10 17C13.866 17 17 13.866 17 10C17 6.13401 13.866 3 10 3C6.13401 3 3 6.13401 3 10C3 13.866 6.13401 17 10 17Z" fill="#ffc0f8"/></g><rect x="318.14" y="146.21" width="17.03" height="17.03" fill="#ff47e9"/><g transform="translate(318.14,146.21) scale(0.8515) rotate(0)"><path fill-rule="evenodd" clip-rule="evenodd" d="M10 20C15.5228 20 20 15.5228 20 10C20 4.47715 15.5228 0 10 0C4.47715 0 0 4.47715 0 10C0 15.5228 4.47715 20 10 20ZM10 17C13.866 17 17 13.866 17 10C17 6.13401 13.866 3 10 3C6.13401 3 3 6.13401 3 10C3 13.866 6.13401 17 10 17Z" fill="#ffdafb"/></g><rect x="352.52" y="146.21" width="17.03" height="17.03" fill="#ffdefb"/><g transform="translate(352.52,146.21) scale(0.8515) rotate(0)"><path fill-rule="evenodd" clip-rule="evenodd" d="M10 20C15.5228 20 20 15.5228 20 10C20 4.47715 15.5228 0 10 0C4.47715 0 0 4.47715 0 10C0 15.5228 4.47715 20 10 20ZM10 17C13.866 17 17 13.866 17 10C17 6.13401 13.866 3 10 3C6.13401 3 3 6.13401 3 10C3 13.866 6.13401 17 10 17Z" fill="#ffe7fc"/></g><rect x="386.9062721893492" y="146.21396449704142" width="17.033609467455623" height="17.033609467455623" fill="#ffffff"/><rect x="395.42" y="146.21" width="8.52" height="8.52" fill="#ffaaf5"/><g transform="translate(395.42,146.21) scale(0.426) rotate(0)"><path fill-rule="evenodd" clip-rule="evenodd" d="M10 20C15.5228 20 20 15.5228 20 10C20 4.47715 15.5228 0 10 0C4.47715 0 0 4.47715 0 10C0 15.5228 4.47715 20 10 20ZM10 17C13.866 17 17 13.866 17 10C17 6.13401 13.866 3 10 3C6.13401 3 3 6.13401 3 10C3 13.866 6.13401 17 10 17Z" fill="#90cdfe"/></g><rect x="395.42" y="154.73" width="8.52" height="8.52" fill="#bae0fe"/><g transform="translate(395.42,154.73) scale(0.426) rotate(0)"><path fill-rule="evenodd" clip-rule="evenodd" d="M10 20C15.5228 20 20 15.5228 20 10C20 4.47715 15.5228 0 10 0C4.47715 0 0 4.47715 0 10C0 15.5228 4.47715 20 10 20ZM10 17C13.866 17 17 13.866 17 10C17 6.13401 13.866 3 10 3C6.13401 3 3 6.13401 3 10C3 13.866 6.13401 17 10 17Z" fill="#ffc6f8"/></g><rect x="455.6755029585799" y="146.21396449704142" width="17.033609467455623" height="17.033609467455623" fill="#ffffff"/><rect x="455.68" y="146.21" width="8.52" height="8.52" fill="#f3faff"/><g transform="translate(455.68,146.21) scale(0.426) rotate(0)"><path fill-rule="evenodd" clip-rule="evenodd" d="M10 20C15.5228 20 20 15.5228 20 10C20 4.47715 15.5228 0 10 0C4.47715 0 0 4.47715 0 10C0 15.5228 4.47715 20 10 20ZM10 17C13.866 17 17 13.866 17 10C17 6.13401 13.866 3 10 3C6.13401 3 3 6.13401 3 10C3 13.866 6.13401 17 10 17Z" fill="#ffdcfb"/></g><rect x="464.19" y="146.21" width="8.52" height="8.52" fill="#ff75ef"/><g transform="translate(464.19,146.21) scale(0.426) rotate(0)"><path fill-rule="evenodd" clip-rule="evenodd" d="M10 20C15.5228 20 20 15.5228 20 10C20 4.47715 15.5228 0 10 0C4.47715 0 0 4.47715 0 10C0 15.5228 4.47715 20 10 20ZM10 17C13.866 17 17 13.866 17 10C17 6.13401 13.866 3 10 3C6.13401 3 3 6.13401 3 10C3 13.866 6.13401 17 10 17Z" fill="#6abbfd"/></g><rect x="464.19" y="154.73" width="8.52" height="8.52" fill="#ffe6fc"/><g transform="translate(464.19,154.73) scale(0.426) rotate(0)"><path fill-rule="evenodd" clip-rule="evenodd" d="M10 20C15.5228 20 20 15.5228 20 10C20 4.47715 15.5228 0 10 0C4.47715 0 0 4.47715 0 10C0 15.5228 4.47715 20 10 20ZM10 17C13.866 17 17 13.866 17 10C17 6.13401 13.866 3 10 3C6.13401 3 3 6.13401 3 10C3 13.866 6.13401 17 10 17Z" fill="#f5faff"/></g><rect x="490.06" y="146.21" width="17.03" height="17.03" fill="#d4ecfe"/><g transform="translate(490.06,146.21) scale(0.8515) rotate(0)"><path fill-rule="evenodd" clip-rule="evenodd" d="M10 20C15.5228 20 20 15.5228 20 10C20 4.47715 15.5228 0 10 0C4.47715 0 0 4.47715 0 10C0 15.5228 4.47715 20 10 20ZM10 17C13.866 17 17 13.866 17 10C17 6.13401 13.866 3 10 3C6.13401 3 3 6.13401 3 10C3 13.866 6.13401 17 10 17Z" fill="#ffc5f8"/></g><rect x="524.4447337278107" y="146.21396449704142" width="17.033609467455623" height="17.033609467455623" fill="#ffffff"/><rect x="524.44" y="146.21" width="8.52" height="8.52" fill="#ffa9f5"/><g transform="translate(524.44,146.21) scale(0.426) rotate(0)"><path d="M10 5L5 0L0 5L5 10L0 15L5 20L10 15L15 20L20 15L15 10L20 5L15 0L10 5Z" fill="#b3ddfe"/></g><rect x="532.96" y="146.21" width="8.52" height="8.52" fill="#ddf0ff"/><g transform="translate(532.96,146.21) scale(0.426) rotate(0)"><path fill-rule="evenodd" clip-rule="evenodd" d="M10 20C15.5228 20 20 15.5228 20 10C20 4.47715 15.5228 0 10 0C4.47715 0 0 4.47715 0 10C0 15.5228 4.47715 20 10 20ZM10 17C13.866 17 17 13.866 17 10C17 6.13401 13.866 3 10 3C6.13401 3 3 6.13401 3 10C3 13.866 6.13401 17 10 17Z" fill="#ff3ce8"/></g><rect x="593.21" y="146.21" width="17.03" height="17.03" fill="#ebf6ff"/><g transform="translate(593.21,146.21) scale(0.8515) rotate(0)"><path d="M10 5L5 0L0 5L5 10L0 15L5 20L10 15L15 20L20 15L15 10L20 5L15 0L10 5Z" fill="#ff61ec"/></g><rect x="627.6" y="146.21" width="17.03" height="17.03" fill="#ff58eb"/><g transform="translate(627.6,146.21) scale(0.8515) rotate(0)"><path d="M10 5L5 0L0 5L5 10L0 15L5 20L10 15L15 20L20 15L15 10L20 5L15 0L10 5Z" fill="#ffa3f4"/></g><rect x="661.98" y="146.21" width="17.03" height="17.03" fill="#daeeff"/><g transform="translate(661.98,146.21) scale(0.8515) rotate(0)"><path d="M10 5L5 0L0 5L5 10L0 15L5 20L10 15L15 20L20 15L15 10L20 5L15 0L10 5Z" fill="#ff39e8"/></g><rect x="7.405917159763314" y="179.32899408284024" width="19.57278106508876" height="19.57278106508876" fill="#ffffff"/><rect x="7.41" y="179.33" width="9.79" height="9.79" fill="#ffa1f4"/><g transform="translate(7.41,179.33) scale(0.48949999999999994) rotate(0)"><path d="M10 5L5 0L0 5L5 10L0 15L5 20L10 15L15 20L20 15L15 10L20 5L15 0L10 5Z" fill="#ff4cea"/></g><rect x="17.19" y="179.33" width="9.79" height="9.79" fill="#ffd6fa"/><g transform="translate(17.19,179.33) scale(0.48949999999999994) rotate(0)"><path d="M10 5L5 0L0 5L5 10L0 15L5 20L10 15L15 20L20 15L15 10L20 5L15 0L10 5Z" fill="#8dcbfe"/></g><rect x="7.41" y="189.12" width="9.79" height="9.79" fill="#ff40e9"/><g transform="translate(7.41,189.12) scale(0.48949999999999994) rotate(0)"><path d="M10 5L5 0L0 5L5 10L0 15L5 20L10 15L15 20L20 15L15 10L20 5L15 0L10 5Z" fill="#ff81f0"/></g><rect x="17.19" y="189.12" width="9.79" height="9.79" fill="#e2f2ff"/><g transform="translate(17.19,189.12) scale(0.48949999999999994) rotate(0)"><path d="M10 5L5 0L0 5L5 10L0 15L5 20L10 15L15 20L20 15L15 10L20 5L15 0L10 5Z" fill="#ffb5f6"/></g><rect x="110.55976331360948" y="179.32899408284024" width="19.57278106508876" height="19.57278106508876" fill="#ffffff"/><rect x="110.56" y="179.33" width="9.79" height="9.79" fill="#e5f3ff"/><g transform="translate(110.56,179.33) scale(0.48949999999999994) rotate(0)"><path fill-rule="evenodd" clip-rule="evenodd" d="M10 20C15.5228 20 20 15.5228 20 10C20 4.47715 15.5228 0 10 0C4.47715 0 0 4.47715 0 10C0 15.5228 4.47715 20 10 20ZM10 17C13.866 17 17 13.866 17 10C17 6.13401 13.866 3 10 3C6.13401 3 3 6.13401 3 10C3 13.866 6.13401 17 10 17Z" fill="#ffcef9"/></g><rect x="110.56" y="189.12" width="9.79" height="9.79" fill="#82c6fd"/><g transform="translate(110.56,189.12) scale(0.48949999999999994) rotate(0)"><path fill-rule="evenodd" clip-rule="evenodd" d="M10 20C15.5228 20 20 15.5228 20 10C20 4.47715 15.5228 0 10 0C4.47715 0 0 4.47715 0 10C0 15.5228 4.47715 20 10 20ZM10 17C13.866 17 17 13.866 17 10C17 6.13401 13.866 3 10 3C6.13401 3 3 6.13401 3 10C3 13.866 6.13401 17 10 17Z" fill="#ff97f3"/></g><rect x="120.35" y="189.12" width="9.79" height="9.79" fill="#ffb6f6"/><g transform="translate(120.35,189.12) scale(0.48949999999999994) rotate(0)"><path fill-rule="evenodd" clip-rule="evenodd" d="M10 20C15.5228 20 20 15.5228 20 10C20 4.47715 15.5228 0 10 0C4.47715 0 0 4.47715 0 10C0 15.5228 4.47715 20 10 20ZM10 17C13.866 17 17 13.866 17 10C17 6.13401 13.866 3 10 3C6.13401 3 3 6.13401 3 10C3 13.866 6.13401 17 10 17Z" fill="#ffb3f6"/></g><rect x="144.94437869822485" y="179.32899408284024" width="19.57278106508876" height="19.57278106508876" fill="#ffffff"/><rect x="144.94" y="179.33" width="9.79" height="9.79" fill="#fcfeff"/><g transform="translate(144.94,179.33) scale(0.48949999999999994) rotate(0)"><path fill-rule="evenodd" clip-rule="evenodd" d="M10 20C15.5228 20 20 15.5228 20 10C20 4.47715 15.5228 0 10 0C4.47715 0 0 4.47715 0 10C0 15.5228 4.47715 20 10 20ZM10 17C13.866 17 17 13.866 17 10C17 6.13401 13.866 3 10 3C6.13401 3 3 6.13401 3 10C3 13.866 6.13401 17 10 17Z" fill="#ff8df2"/></g><rect x="154.73" y="179.33" width="9.79" height="9.79" fill="#ff64ed"/><g transform="translate(154.73,179.33) scale(0.48949999999999994) rotate(0)"><path fill-rule="evenodd" clip-rule="evenodd" d="M10 20C15.5228 20 20 15.5228 20 10C20 4.47715 15.5228 0 10 0C4.47715 0 0 4.47715 0 10C0 15.5228 4.47715 20 10 20ZM10 17C13.866 17 17 13.866 17 10C17 6.13401 13.866 3 10 3C6.13401 3 3 6.13401 3 10C3 13.866 6.13401 17 10 17Z" fill="#ffeefd"/></g><rect x="179.33" y="179.33" width="19.57" height="19.57" fill="#b6defe"/><g transform="translate(179.33,179.33) scale(0.9785) rotate(0)"><path fill-rule="evenodd" clip-rule="evenodd" d="M10 20C15.5228 20 20 15.5228 20 10C20 4.47715 15.5228 0 10 0C4.47715 0 0 4.47715 0 10C0 15.5228 4.47715 20 10 20ZM10 17C13.866 17 17 13.866 17 10C17 6.13401 13.866 3 10 3C6.13401 3 3 6.13401 3 10C3 13.866 6.13401 17 10 17Z" fill="#ff5bec"/></g><rect x="213.71" y="179.33" width="19.57" height="19.57" fill="#def0ff"/><g transform="translate(213.71,179.33) scale(0.9785) rotate(0)"><path fill-rule="evenodd" clip-rule="evenodd" d="M10 20C15.5228 20 20 15.5228 20 10C20 4.47715 15.5228 0 10 0C4.47715 0 0 4.47715 0 10C0 15.5228 4.47715 20 10 20ZM10 17C13.866 17 17 13.866 17 10C17 6.13401 13.866 3 10 3C6.13401 3 3 6.13401 3 10C3 13.866 6.13401 17 10 17Z" fill="#ff52eb"/></g><rect x="316.86745562130176" y="179.32899408284024" width="19.57278106508876" height="19.57278106508876" fill="#ffffff"/><rect x="316.87" y="179.33" width="9.79" height="9.79" fill="#ff7df0"/><g transform="translate(316.87,179.33) scale(0.48949999999999994) rotate(0)"><path d="M10 5L5 0L0 5L5 10L0 15L5 20L10 15L15 20L20 15L15 10L20 5L15 0L10 5Z" fill="#ffd7fa"/></g><rect x="326.65" y="179.33" width="9.79" height="9.79" fill="#ffcff9"/><g transform="translate(326.65,179.33) scale(0.48949999999999994) rotate(0)"><path d="M10 5L5 0L0 5L5 10L0 15L5 20L10 15L15 20L20 15L15 10L20 5L15 0L10 5Z" fill="#ffdafb"/></g><rect x="351.25" y="179.33" width="19.57" height="19.57" fill="#ff45e9"/><g transform="translate(351.25,179.33) scale(0.9785) rotate(0)"><path d="M10 5L5 0L0 5L5 10L0 15L5 20L10 15L15 20L20 15L15 10L20 5L15 0L10 5Z" fill="#e3f2ff"/></g><rect x="454.41" y="179.33" width="19.57" height="19.57" fill="#daeeff"/><g transform="translate(454.41,179.33) scale(0.9785) rotate(0)"><path d="M10 5L5 0L0 5L5 10L0 15L5 20L10 15L15 20L20 15L15 10L20 5L15 0L10 5Z" fill="#ff80f0"/></g><rect x="488.7905325443787" y="179.32899408284024" width="19.57278106508876" height="19.57278106508876" fill="#ffffff"/><rect x="498.58" y="179.33" width="9.79" height="9.79" fill="#ffabf5"/><g transform="translate(498.58,179.33) scale(0.48949999999999994) rotate(0)"><path d="M10 5L5 0L0 5L5 10L0 15L5 20L10 15L15 20L20 15L15 10L20 5L15 0L10 5Z" fill="#ff53eb"/></g><rect x="498.58" y="189.12" width="9.79" height="9.79" fill="#ffe4fc"/><g transform="translate(498.58,189.12) scale(0.48949999999999994) rotate(0)"><path fill-rule="evenodd" clip-rule="evenodd" d="M10 20C15.5228 20 20 15.5228 20 10C20 4.47715 15.5228 0 10 0C4.47715 0 0 4.47715 0 10C0 15.5228 4.47715 20 10 20ZM10 17C13.866 17 17 13.866 17 10C17 6.13401 13.866 3 10 3C6.13401 3 3 6.13401 3 10C3 13.866 6.13401 17 10 17Z" fill="#68bbfd"/></g><rect x="557.56" y="179.33" width="19.57" height="19.57" fill="#ff9ef4"/><g transform="translate(557.56,179.33) scale(0.9785) rotate(0)"><path fill-rule="evenodd" clip-rule="evenodd" d="M10 20C15.5228 20 20 15.5228 20 10C20 4.47715 15.5228 0 10 0C4.47715 0 0 4.47715 0 10C0 15.5228 4.47715 20 10 20ZM10 17C13.866 17 17 13.866 17 10C17 6.13401 13.866 3 10 3C6.13401 3 3 6.13401 3 10C3 13.866 6.13401 17 10 17Z" fill="#92cefe"/></g><rect x="695.0982248520711" y="179.32899408284024" width="19.57278106508876" height="19.57278106508876" fill="#ffffff"/><rect x="704.88" y="179.33" width="9.79" height="9.79" fill="#ffe9fc"/><g transform="translate(704.88,179.33) scale(0.48949999999999994) rotate(0)"><path fill-rule="evenodd" clip-rule="evenodd" d="M10 20C15.5228 20 20 15.5228 20 10C20 4.47715 15.5228 0 10 0C4.47715 0 0 4.47715 0 10C0 15.5228 4.47715 20 10 20ZM10 17C13.866 17 17 13.866 17 10C17 6.13401 13.866 3 10 3C6.13401 3 3 6.13401 3 10C3 13.866 6.13401 17 10 17Z" fill="#ff3fe8"/></g><rect x="695.1" y="189.12" width="9.79" height="9.79" fill="#ff50ea"/><g transform="translate(695.1,189.12) scale(0.48949999999999994) rotate(0)"><path fill-rule="evenodd" clip-rule="evenodd" d="M10 20C15.5228 20 20 15.5228 20 10C20 4.47715 15.5228 0 10 0C4.47715 0 0 4.47715 0 10C0 15.5228 4.47715 20 10 20ZM10 17C13.866 17 17 13.866 17 10C17 6.13401 13.866 3 10 3C6.13401 3 3 6.13401 3 10C3 13.866 6.13401 17 10 17Z" fill="#72bffd"/></g><rect x="704.88" y="189.12" width="9.79" height="9.79" fill="#c5e5fe"/><g transform="translate(704.88,189.12) scale(0.48949999999999994) rotate(0)"><path d="M10 5L5 0L0 5L5 10L0 15L5 20L10 15L15 20L20 15L15 10L20 5L15 0L10 5Z" fill="#ff69ed"/></g><rect x="40.52" y="212.44" width="22.11" height="22.11" fill="#ff8bf1"/><g transform="translate(40.52,212.44) scale(1.1055) rotate(0)"><path fill-rule="evenodd" clip-rule="evenodd" d="M10 20C15.5228 20 20 15.5228 20 10C20 4.47715 15.5228 0 10 0C4.47715 0 0 4.47715 0 10C0 15.5228 4.47715 20 10 20ZM10 17C13.866 17 17 13.866 17 10C17 6.13401 13.866 3 10 3C6.13401 3 3 6.13401 3 10C3 13.866 6.13401 17 10 17Z" fill="#eaf5ff"/></g><rect x="74.90556213017751" y="212.44402366863906" width="22.111952662721897" height="22.111952662721897" fill="#ffffff"/><rect x="85.96" y="223.5" width="11.06" height="11.06" fill="#ffeefd"/><g transform="translate(85.96,223.5) scale(0.553) rotate(0)"><path d="M10 5L5 0L0 5L5 10L0 15L5 20L10 15L15 20L20 15L15 10L20 5L15 0L10 5Z" fill="#ff76ef"/></g><rect x="109.29" y="212.44" width="22.11" height="22.11" fill="#ffb2f6"/><g transform="translate(109.29,212.44) scale(1.1055) rotate(0)"><path fill-rule="evenodd" clip-rule="evenodd" d="M10 20C15.5228 20 20 15.5228 20 10C20 4.47715 15.5228 0 10 0C4.47715 0 0 4.47715 0 10C0 15.5228 4.47715 20 10 20ZM10 17C13.866 17 17 13.866 17 10C17 6.13401 13.866 3 10 3C6.13401 3 3 6.13401 3 10C3 13.866 6.13401 17 10 17Z" fill="#75c1fd"/></g><rect x="143.67" y="212.44" width="22.11" height="22.11" fill="#66bafd"/><g transform="translate(143.67,212.44) scale(1.1055) rotate(0)"><path d="M10 5L5 0L0 5L5 10L0 15L5 20L10 15L15 20L20 15L15 10L20 5L15 0L10 5Z" fill="#7cc4fd"/></g><rect x="212.44" y="212.44" width="22.11" height="22.11" fill="#9bd2fe"/><g transform="translate(212.44,212.44) scale(1.1055) rotate(0)"><path d="M10 5L5 0L0 5L5 10L0 15L5 20L10 15L15 20L20 15L15 10L20 5L15 0L10 5Z" fill="#ff3be8"/></g><rect x="246.83" y="212.44" width="22.11" height="22.11" fill="#bce1fe"/><g transform="translate(246.83,212.44) scale(1.1055) rotate(0)"><path fill-rule="evenodd" clip-rule="evenodd" d="M10 20C15.5228 20 20 15.5228 20 10C20 4.47715 15.5228 0 10 0C4.47715 0 0 4.47715 0 10C0 15.5228 4.47715 20 10 20ZM10 17C13.866 17 17 13.866 17 10C17 6.13401 13.866 3 10 3C6.13401 3 3 6.13401 3 10C3 13.866 6.13401 17 10 17Z" fill="#b6defe"/></g><rect x="281.21325443786986" y="212.44402366863906" width="22.111952662721897" height="22.111952662721897" fill="#ffffff"/><rect x="281.21" y="223.5" width="11.06" height="11.06" fill="#ffaaf5"/><g transform="translate(281.21,223.5) scale(0.553) rotate(0)"><path fill-rule="evenodd" clip-rule="evenodd" d="M10 20C15.5228 20 20 15.5228 20 10C20 4.47715 15.5228 0 10 0C4.47715 0 0 4.47715 0 10C0 15.5228 4.47715 20 10 20ZM10 17C13.866 17 17 13.866 17 10C17 6.13401 13.866 3 10 3C6.13401 3 3 6.13401 3 10C3 13.866 6.13401 17 10 17Z" fill="#ff9df4"/></g><rect x="292.27" y="223.5" width="11.06" height="11.06" fill="#d4ebfe"/><g transform="translate(292.27,223.5) scale(0.553) rotate(0)"><path d="M10 5L5 0L0 5L5 10L0 15L5 20L10 15L15 20L20 15L15 10L20 5L15 0L10 5Z" fill="#92cefe"/></g><rect x="315.6" y="212.44" width="22.11" height="22.11" fill="#ff94f2"/><g transform="translate(315.6,212.44) scale(1.1055) rotate(0)"><path d="M10 5L5 0L0 5L5 10L0 15L5 20L10 15L15 20L20 15L15 10L20 5L15 0L10 5Z" fill="#ffd3fa"/></g><rect x="384.37" y="212.44" width="22.11" height="22.11" fill="#ffdbfb"/><g transform="translate(384.37,212.44) scale(1.1055) rotate(0)"><path fill-rule="evenodd" clip-rule="evenodd" d="M10 20C15.5228 20 20 15.5228 20 10C20 4.47715 15.5228 0 10 0C4.47715 0 0 4.47715 0 10C0 15.5228 4.47715 20 10 20ZM10 17C13.866 17 17 13.866 17 10C17 6.13401 13.866 3 10 3C6.13401 3 3 6.13401 3 10C3 13.866 6.13401 17 10 17Z" fill="#ff75ef"/></g><rect x="418.7517159763314" y="212.44402366863906" width="22.111952662721897" height="22.111952662721897" fill="#ffffff"/><rect x="429.81" y="212.44" width="11.06" height="11.06" fill="#ff93f2"/><g transform="translate(429.81,212.44) scale(0.553) rotate(0)"><path fill-rule="evenodd" clip-rule="evenodd" d="M10 20C15.5228 20 20 15.5228 20 10C20 4.47715 15.5228 0 10 0C4.47715 0 0 4.47715 0 10C0 15.5228 4.47715 20 10 20ZM10 17C13.866 17 17 13.866 17 10C17 6.13401 13.866 3 10 3C6.13401 3 3 6.13401 3 10C3 13.866 6.13401 17 10 17Z" fill="#ff7bef"/></g><rect x="418.75" y="223.5" width="11.06" height="11.06" fill="#ffe3fc"/><g transform="translate(418.75,223.5) scale(0.553) rotate(0)"><path d="M10 5L5 0L0 5L5 10L0 15L5 20L10 15L15 20L20 15L15 10L20 5L15 0L10 5Z" fill="#dbefff"/></g><rect x="429.81" y="223.5" width="11.06" height="11.06" fill="#e8f5ff"/><g transform="translate(429.81,223.5) scale(0.553) rotate(0)"><path fill-rule="evenodd" clip-rule="evenodd" d="M10 20C15.5228 20 20 15.5228 20 10C20 4.47715 15.5228 0 10 0C4.47715 0 0 4.47715 0 10C0 15.5228 4.47715 20 10 20ZM10 17C13.866 17 17 13.866 17 10C17 6.13401 13.866 3 10 3C6.13401 3 3 6.13401 3 10C3 13.866 6.13401 17 10 17Z" fill="#fff8fe"/></g><rect x="521.91" y="212.44" width="22.11" height="22.11" fill="#a1d4fe"/><g transform="translate(521.91,212.44) scale(1.1055) rotate(0)"><path d="M10 5L5 0L0 5L5 10L0 15L5 20L10 15L15 20L20 15L15 10L20 5L15 0L10 5Z" fill="#fdfeff"/></g><rect x="556.29" y="212.44" width="22.11" height="22.11" fill="#ffeefd"/><g transform="translate(556.29,212.44) scale(1.1055) rotate(0)"><path fill-rule="evenodd" clip-rule="evenodd" d="M10 20C15.5228 20 20 15.5228 20 10C20 4.47715 15.5228 0 10 0C4.47715 0 0 4.47715 0 10C0 15.5228 4.47715 20 10 20ZM10 17C13.866 17 17 13.866 17 10C17 6.13401 13.866 3 10 3C6.13401 3 3 6.13401 3 10C3 13.866 6.13401 17 10 17Z" fill="#62b8fd"/></g><rect x="590.67" y="212.44" width="22.11" height="22.11" fill="#d1eafe"/><g transform="translate(590.67,212.44) scale(1.1055) rotate(0)"><path fill-rule="evenodd" clip-rule="evenodd" d="M10 20C15.5228 20 20 15.5228 20 10C20 4.47715 15.5228 0 10 0C4.47715 0 0 4.47715 0 10C0 15.5228 4.47715 20 10 20ZM10 17C13.866 17 17 13.866 17 10C17 6.13401 13.866 3 10 3C6.13401 3 3 6.13401 3 10C3 13.866 6.13401 17 10 17Z" fill="#ffd4fa"/></g><rect x="625.06" y="212.44" width="22.11" height="22.11" fill="#edf7ff"/><g transform="translate(625.06,212.44) scale(1.1055) rotate(0)"><path fill-rule="evenodd" clip-rule="evenodd" d="M10 20C15.5228 20 20 15.5228 20 10C20 4.47715 15.5228 0 10 0C4.47715 0 0 4.47715 0 10C0 15.5228 4.47715 20 10 20ZM10 17C13.866 17 17 13.866 17 10C17 6.13401 13.866 3 10 3C6.13401 3 3 6.13401 3 10C3 13.866 6.13401 17 10 17Z" fill="#fff9fe"/></g><rect x="693.83" y="212.44" width="22.11" height="22.11" fill="#9bd2fe"/><g transform="translate(693.83,212.44) scale(1.1055) rotate(0)"><path d="M10 5L5 0L0 5L5 10L0 15L5 20L10 15L15 20L20 15L15 10L20 5L15 0L10 5Z" fill="#ffb4f6"/></g><rect x="4.87" y="245.56" width="24.65" height="24.65" fill="#ffb6f6"/><g transform="translate(4.87,245.56) scale(1.2325) rotate(0)"><path fill-rule="evenodd" clip-rule="evenodd" d="M10 20C15.5228 20 20 15.5228 20 10C20 4.47715 15.5228 0 10 0C4.47715 0 0 4.47715 0 10C0 15.5228 4.47715 20 10 20ZM10 17C13.866 17 17 13.866 17 10C17 6.13401 13.866 3 10 3C6.13401 3 3 6.13401 3 10C3 13.866 6.13401 17 10 17Z" fill="#d8edff"/></g><rect x="39.25" y="245.56" width="24.65" height="24.65" fill="#fbfdff"/><g transform="translate(39.25,245.56) scale(1.2325) rotate(0)"><path d="M10 5L5 0L0 5L5 10L0 15L5 20L10 15L15 20L20 15L15 10L20 5L15 0L10 5Z" fill="#bee1fe"/></g><rect x="73.64" y="245.56" width="24.65" height="24.65" fill="#ff66ed"/><g transform="translate(73.64,245.56) scale(1.2325) rotate(0)"><path d="M10 5L5 0L0 5L5 10L0 15L5 20L10 15L15 20L20 15L15 10L20 5L15 0L10 5Z" fill="#d3ebfe"/></g><rect x="108.02" y="245.56" width="24.65" height="24.65" fill="#ff65ed"/><g transform="translate(108.02,245.56) scale(1.2325) rotate(0)"><path fill-rule="evenodd" clip-rule="evenodd" d="M10 20C15.5228 20 20 15.5228 20 10C20 4.47715 15.5228 0 10 0C4.47715 0 0 4.47715 0 10C0 15.5228 4.47715 20 10 20ZM10 17C13.866 17 17 13.866 17 10C17 6.13401 13.866 3 10 3C6.13401 3 3 6.13401 3 10C3 13.866 6.13401 17 10 17Z" fill="#ebf6ff"/></g><rect x="142.41" y="245.56" width="24.65" height="24.65" fill="#edf7ff"/><g transform="translate(142.41,245.56) scale(1.2325) rotate(0)"><path fill-rule="evenodd" clip-rule="evenodd" d="M10 20C15.5228 20 20 15.5228 20 10C20 4.47715 15.5228 0 10 0C4.47715 0 0 4.47715 0 10C0 15.5228 4.47715 20 10 20ZM10 17C13.866 17 17 13.866 17 10C17 6.13401 13.866 3 10 3C6.13401 3 3 6.13401 3 10C3 13.866 6.13401 17 10 17Z" fill="#bee2fe"/></g><rect x="176.79" y="245.56" width="24.65" height="24.65" fill="#f1f9ff"/><g transform="translate(176.79,245.56) scale(1.2325) rotate(0)"><path fill-rule="evenodd" clip-rule="evenodd" d="M10 20C15.5228 20 20 15.5228 20 10C20 4.47715 15.5228 0 10 0C4.47715 0 0 4.47715 0 10C0 15.5228 4.47715 20 10 20ZM10 17C13.866 17 17 13.866 17 10C17 6.13401 13.866 3 10 3C6.13401 3 3 6.13401 3 10C3 13.866 6.13401 17 10 17Z" fill="#86c8fd"/></g><rect x="211.1744378698225" y="245.55905325443788" width="24.65112426035503" height="24.65112426035503" fill="#ffffff"/><rect x="211.17" y="245.56" width="12.33" height="12.33" fill="#ff4fea"/><g transform="translate(211.17,245.56) scale(0.6165) rotate(0)"><path fill-rule="evenodd" clip-rule="evenodd" d="M10 20C15.5228 20 20 15.5228 20 10C20 4.47715 15.5228 0 10 0C4.47715 0 0 4.47715 0 10C0 15.5228 4.47715 20 10 20ZM10 17C13.866 17 17 13.866 17 10C17 6.13401 13.866 3 10 3C6.13401 3 3 6.13401 3 10C3 13.866 6.13401 17 10 17Z" fill="#ff80f0"/></g><rect x="223.5" y="245.56" width="12.33" height="12.33" fill="#9cd2fe"/><g transform="translate(223.5,245.56) scale(0.6165) rotate(0)"><path fill-rule="evenodd" clip-rule="evenodd" d="M10 20C15.5228 20 20 15.5228 20 10C20 4.47715 15.5228 0 10 0C4.47715 0 0 4.47715 0 10C0 15.5228 4.47715 20 10 20ZM10 17C13.866 17 17 13.866 17 10C17 6.13401 13.866 3 10 3C6.13401 3 3 6.13401 3 10C3 13.866 6.13401 17 10 17Z" fill="#65b9fd"/></g><rect x="211.17" y="257.88" width="12.33" height="12.33" fill="#a8d8fe"/><g transform="translate(211.17,257.88) scale(0.6165) rotate(0)"><path d="M10 5L5 0L0 5L5 10L0 15L5 20L10 15L15 20L20 15L15 10L20 5L15 0L10 5Z" fill="#bbe0fe"/></g><rect x="223.5" y="257.88" width="12.33" height="12.33" fill="#ff9df4"/><g transform="translate(223.5,257.88) scale(0.6165) rotate(0)"><path d="M10 5L5 0L0 5L5 10L0 15L5 20L10 15L15 20L20 15L15 10L20 5L15 0L10 5Z" fill="#ff4dea"/></g><rect x="279.94" y="245.56" width="24.65" height="24.65" fill="#b5defe"/><g transform="translate(279.94,245.56) scale(1.2325) rotate(0)"><path d="M10 5L5 0L0 5L5 10L0 15L5 20L10 15L15 20L20 15L15 10L20 5L15 0L10 5Z" fill="#ffd8fa"/></g><rect x="383.1" y="245.56" width="24.65" height="24.65" fill="#68bbfd"/><g transform="translate(383.1,245.56) scale(1.2325) rotate(0)"><path d="M10 5L5 0L0 5L5 10L0 15L5 20L10 15L15 20L20 15L15 10L20 5L15 0L10 5Z" fill="#ffe0fb"/></g><rect x="451.8667455621302" y="245.55905325443788" width="24.65112426035503" height="24.65112426035503" fill="#ffffff"/><rect x="464.19" y="257.88" width="12.33" height="12.33" fill="#ff3ee8"/><g transform="translate(464.19,257.88) scale(0.6165) rotate(0)"><path d="M10 5L5 0L0 5L5 10L0 15L5 20L10 15L15 20L20 15L15 10L20 5L15 0L10 5Z" fill="#94cffe"/></g><rect x="486.25" y="245.56" width="24.65" height="24.65" fill="#ffd3fa"/><g transform="translate(486.25,245.56) scale(1.2325) rotate(0)"><path fill-rule="evenodd" clip-rule="evenodd" d="M10 20C15.5228 20 20 15.5228 20 10C20 4.47715 15.5228 0 10 0C4.47715 0 0 4.47715 0 10C0 15.5228 4.47715 20 10 20ZM10 17C13.866 17 17 13.866 17 10C17 6.13401 13.866 3 10 3C6.13401 3 3 6.13401 3 10C3 13.866 6.13401 17 10 17Z" fill="#ff60ec"/></g><rect x="555.02" y="245.56" width="24.65" height="24.65" fill="#ff59eb"/><g transform="translate(555.02,245.56) scale(1.2325) rotate(0)"><path fill-rule="evenodd" clip-rule="evenodd" d="M10 20C15.5228 20 20 15.5228 20 10C20 4.47715 15.5228 0 10 0C4.47715 0 0 4.47715 0 10C0 15.5228 4.47715 20 10 20ZM10 17C13.866 17 17 13.866 17 10C17 6.13401 13.866 3 10 3C6.13401 3 3 6.13401 3 10C3 13.866 6.13401 17 10 17Z" fill="#ffa5f4"/></g><rect x="589.41" y="245.56" width="24.65" height="24.65" fill="#f9fcff"/><g transform="translate(589.41,245.56) scale(1.2325) rotate(0)"><path d="M10 5L5 0L0 5L5 10L0 15L5 20L10 15L15 20L20 15L15 10L20 5L15 0L10 5Z" fill="#fafdff"/></g><rect x="692.5590532544379" y="245.55905325443788" width="24.65112426035503" height="24.65112426035503" fill="#ffffff"/><rect x="692.56" y="245.56" width="12.33" height="12.33" fill="#ff7ef0"/><g transform="translate(692.56,245.56) scale(0.6165) rotate(0)"><path d="M10 5L5 0L0 5L5 10L0 15L5 20L10 15L15 20L20 15L15 10L20 5L15 0L10 5Z" fill="#dcefff"/></g><rect x="692.56" y="257.88" width="12.33" height="12.33" fill="#cfe9fe"/><g transform="translate(692.56,257.88) scale(0.6165) rotate(0)"><path d="M10 5L5 0L0 5L5 10L0 15L5 20L10 15L15 20L20 15L15 10L20 5L15 0L10 5Z" fill="#dbefff"/></g><rect x="704.88" y="257.88" width="12.33" height="12.33" fill="#ff42e9"/><g transform="translate(704.88,257.88) scale(0.6165) rotate(0)"><path fill-rule="evenodd" clip-rule="evenodd" d="M10 20C15.5228 20 20 15.5228 20 10C20 4.47715 15.5228 0 10 0C4.47715 0 0 4.47715 0 10C0 15.5228 4.47715 20 10 20ZM10 17C13.866 17 17 13.866 17 10C17 6.13401 13.866 3 10 3C6.13401 3 3 6.13401 3 10C3 13.866 6.13401 17 10 17Z" fill="#6bbcfd"/></g><rect x="3.5971597633136088" y="278.6740828402367" width="27.19029585798817" height="27.19029585798817" fill="#ffffff"/><rect x="3.6" y="278.67" width="13.6" height="13.6" fill="#f6fbff"/><g transform="translate(3.6,278.67) scale(0.6799999999999999) rotate(0)"><path fill-rule="evenodd" clip-rule="evenodd" d="M10 20C15.5228 20 20 15.5228 20 10C20 4.47715 15.5228 0 10 0C4.47715 0 0 4.47715 0 10C0 15.5228 4.47715 20 10 20ZM10 17C13.866 17 17 13.866 17 10C17 6.13401 13.866 3 10 3C6.13401 3 3 6.13401 3 10C3 13.866 6.13401 17 10 17Z" fill="#ff85f1"/></g><rect x="17.19" y="278.67" width="13.6" height="13.6" fill="#cbe8fe"/><g transform="translate(17.19,278.67) scale(0.6799999999999999) rotate(0)"><path fill-rule="evenodd" clip-rule="evenodd" d="M10 20C15.5228 20 20 15.5228 20 10C20 4.47715 15.5228 0 10 0C4.47715 0 0 4.47715 0 10C0 15.5228 4.47715 20 10 20ZM10 17C13.866 17 17 13.866 17 10C17 6.13401 13.866 3 10 3C6.13401 3 3 6.13401 3 10C3 13.866 6.13401 17 10 17Z" fill="#f3faff"/></g><rect x="17.19" y="292.27" width="13.6" height="13.6" fill="#e8f5ff"/><g transform="translate(17.19,292.27) scale(0.6799999999999999) rotate(0)"><path d="M10 5L5 0L0 5L5 10L0 15L5 20L10 15L15 20L20 15L15 10L20 5L15 0L10 5Z" fill="#ffc1f8"/></g><rect x="37.98" y="278.67" width="27.19" height="27.19" fill="#d2eafe"/><g transform="translate(37.98,278.67) scale(1.3595000000000002) rotate(0)"><path fill-rule="evenodd" clip-rule="evenodd" d="M10 20C15.5228 20 20 15.5228 20 10C20 4.47715 15.5228 0 10 0C4.47715 0 0 4.47715 0 10C0 15.5228 4.47715 20 10 20ZM10 17C13.866 17 17 13.866 17 10C17 6.13401 13.866 3 10 3C6.13401 3 3 6.13401 3 10C3 13.866 6.13401 17 10 17Z" fill="#89cafd"/></g><rect x="72.36639053254439" y="278.6740828402367" width="27.19029585798817" height="27.19029585798817" fill="#ffffff"/><rect x="85.96" y="278.67" width="13.6" height="13.6" fill="#ff72ee"/><g transform="translate(85.96,278.67) scale(0.6799999999999999) rotate(0)"><path d="M10 5L5 0L0 5L5 10L0 15L5 20L10 15L15 20L20 15L15 10L20 5L15 0L10 5Z" fill="#ff84f0"/></g><rect x="106.75" y="278.67" width="27.19" height="27.19" fill="#ffe5fc"/><g transform="translate(106.75,278.67) scale(1.3595000000000002) rotate(0)"><path fill-rule="evenodd" clip-rule="evenodd" d="M10 20C15.5228 20 20 15.5228 20 10C20 4.47715 15.5228 0 10 0C4.47715 0 0 4.47715 0 10C0 15.5228 4.47715 20 10 20ZM10 17C13.866 17 17 13.866 17 10C17 6.13401 13.866 3 10 3C6.13401 3 3 6.13401 3 10C3 13.866 6.13401 17 10 17Z" fill="#78c2fd"/></g><rect x="175.52" y="278.67" width="27.19" height="27.19" fill="#73c0fd"/><g transform="translate(175.52,278.67) scale(1.3595000000000002) rotate(0)"><path fill-rule="evenodd" clip-rule="evenodd" d="M10 20C15.5228 20 20 15.5228 20 10C20 4.47715 15.5228 0 10 0C4.47715 0 0 4.47715 0 10C0 15.5228 4.47715 20 10 20ZM10 17C13.866 17 17 13.866 17 10C17 6.13401 13.866 3 10 3C6.13401 3 3 6.13401 3 10C3 13.866 6.13401 17 10 17Z" fill="#ffaff6"/></g><rect x="209.9" y="278.67" width="27.19" height="27.19" fill="#74c0fd"/><g transform="translate(209.9,278.67) scale(1.3595000000000002) rotate(0)"><path d="M10 5L5 0L0 5L5 10L0 15L5 20L10 15L15 20L20 15L15 10L20 5L15 0L10 5Z" fill="#ffa9f5"/></g><rect x="313.05869822485204" y="278.6740828402367" width="27.19029585798817" height="27.19029585798817" fill="#ffffff"/><rect x="326.65" y="278.67" width="13.6" height="13.6" fill="#84c7fd"/><g transform="translate(326.65,278.67) scale(0.6799999999999999) rotate(0)"><path d="M10 5L5 0L0 5L5 10L0 15L5 20L10 15L15 20L20 15L15 10L20 5L15 0L10 5Z" fill="#8ccbfe"/></g><rect x="313.06" y="292.27" width="13.6" height="13.6" fill="#7bc3fd"/><g transform="translate(313.06,292.27) scale(0.6799999999999999) rotate(0)"><path fill-rule="evenodd" clip-rule="evenodd" d="M10 20C15.5228 20 20 15.5228 20 10C20 4.47715 15.5228 0 10 0C4.47715 0 0 4.47715 0 10C0 15.5228 4.47715 20 10 20ZM10 17C13.866 17 17 13.866 17 10C17 6.13401 13.866 3 10 3C6.13401 3 3 6.13401 3 10C3 13.866 6.13401 17 10 17Z" fill="#ff42e9"/></g><rect x="326.65" y="292.27" width="13.6" height="13.6" fill="#92cefe"/><g transform="translate(326.65,292.27) scale(0.6799999999999999) rotate(0)"><path fill-rule="evenodd" clip-rule="evenodd" d="M10 20C15.5228 20 20 15.5228 20 10C20 4.47715 15.5228 0 10 0C4.47715 0 0 4.47715 0 10C0 15.5228 4.47715 20 10 20ZM10 17C13.866 17 17 13.866 17 10C17 6.13401 13.866 3 10 3C6.13401 3 3 6.13401 3 10C3 13.866 6.13401 17 10 17Z" fill="#99d1fe"/></g><rect x="347.44" y="278.67" width="27.19" height="27.19" fill="#a0d4fe"/><g transform="translate(347.44,278.67) scale(1.3595000000000002) rotate(0)"><path fill-rule="evenodd" clip-rule="evenodd" d="M10 20C15.5228 20 20 15.5228 20 10C20 4.47715 15.5228 0 10 0C4.47715 0 0 4.47715 0 10C0 15.5228 4.47715 20 10 20ZM10 17C13.866 17 17 13.866 17 10C17 6.13401 13.866 3 10 3C6.13401 3 3 6.13401 3 10C3 13.866 6.13401 17 10 17Z" fill="#ffe0fb"/></g><rect x="416.21" y="278.67" width="27.19" height="27.19" fill="#c6e5fe"/><g transform="translate(416.21,278.67) scale(1.3595000000000002) rotate(0)"><path d="M10 5L5 0L0 5L5 10L0 15L5 20L10 15L15 20L20 15L15 10L20 5L15 0L10 5Z" fill="#72bffd"/></g><rect x="450.5971597633136" y="278.6740828402367" width="27.19029585798817" height="27.19029585798817" fill="#ffffff"/><rect x="450.6" y="278.67" width="13.6" height="13.6" fill="#84c7fd"/><g transform="translate(450.6,278.67) scale(0.6799999999999999) rotate(0)"><path fill-rule="evenodd" clip-rule="evenodd" d="M10 20C15.5228 20 20 15.5228 20 10C20 4.47715 15.5228 0 10 0C4.47715 0 0 4.47715 0 10C0 15.5228 4.47715 20 10 20ZM10 17C13.866 17 17 13.866 17 10C17 6.13401 13.866 3 10 3C6.13401 3 3 6.13401 3 10C3 13.866 6.13401 17 10 17Z" fill="#95cffe"/></g><rect x="450.6" y="292.27" width="13.6" height="13.6" fill="#fcfdff"/><g transform="translate(450.6,292.27) scale(0.6799999999999999) rotate(0)"><path d="M10 5L5 0L0 5L5 10L0 15L5 20L10 15L15 20L20 15L15 10L20 5L15 0L10 5Z" fill="#ff9df4"/></g><rect x="464.19" y="292.27" width="13.6" height="13.6" fill="#ecf6ff"/><g transform="translate(464.19,292.27) scale(0.6799999999999999) rotate(0)"><path fill-rule="evenodd" clip-rule="evenodd" d="M10 20C15.5228 20 20 15.5228 20 10C20 4.47715 15.5228 0 10 0C4.47715 0 0 4.47715 0 10C0 15.5228 4.47715 20 10 20ZM10 17C13.866 17 17 13.866 17 10C17 6.13401 13.866 3 10 3C6.13401 3 3 6.13401 3 10C3 13.866 6.13401 17 10 17Z" fill="#74c0fd"/></g><rect x="484.98" y="278.67" width="27.19" height="27.19" fill="#fcfdff"/><g transform="translate(484.98,278.67) scale(1.3595000000000002) rotate(0)"><path fill-rule="evenodd" clip-rule="evenodd" d="M10 20C15.5228 20 20 15.5228 20 10C20 4.47715 15.5228 0 10 0C4.47715 0 0 4.47715 0 10C0 15.5228 4.47715 20 10 20ZM10 17C13.866 17 17 13.866 17 10C17 6.13401 13.866 3 10 3C6.13401 3 3 6.13401 3 10C3 13.866 6.13401 17 10 17Z" fill="#ff9cf3"/></g><rect x="519.37" y="278.67" width="27.19" height="27.19" fill="#ff4fea"/><g transform="translate(519.37,278.67) scale(1.3595000000000002) rotate(0)"><path d="M10 5L5 0L0 5L5 10L0 15L5 20L10 15L15 20L20 15L15 10L20 5L15 0L10 5Z" fill="#6cbdfd"/></g><rect x="622.52" y="278.67" width="27.19" height="27.19" fill="#ffd3fa"/><g transform="translate(622.52,278.67) scale(1.3595000000000002) rotate(0)"><path d="M10 5L5 0L0 5L5 10L0 15L5 20L10 15L15 20L20 15L15 10L20 5L15 0L10 5Z" fill="#ffb1f6"/></g><rect x="691.29" y="278.67" width="27.19" height="27.19" fill="#93cefe"/><g transform="translate(691.29,278.67) scale(1.3595000000000002) rotate(0)"><path fill-rule="evenodd" clip-rule="evenodd" d="M10 20C15.5228 20 20 15.5228 20 10C20 4.47715 15.5228 0 10 0C4.47715 0 0 4.47715 0 10C0 15.5228 4.47715 20 10 20ZM10 17C13.866 17 17 13.866 17 10C17 6.13401 13.866 3 10 3C6.13401 3 3 6.13401 3 10C3 13.866 6.13401 17 10 17Z" fill="#7fc5fd"/></g><rect x="2.327573964497043" y="311.7891124260355" width="29.7294674556213" height="29.7294674556213" fill="#ffffff"/><rect x="17.19" y="311.79" width="14.86" height="14.86" fill="#ff71ee"/><g transform="translate(17.19,311.79) scale(0.743) rotate(0)"><path fill-rule="evenodd" clip-rule="evenodd" d="M10 20C15.5228 20 20 15.5228 20 10C20 4.47715 15.5228 0 10 0C4.47715 0 0 4.47715 0 10C0 15.5228 4.47715 20 10 20ZM10 17C13.866 17 17 13.866 17 10C17 6.13401 13.866 3 10 3C6.13401 3 3 6.13401 3 10C3 13.866 6.13401 17 10 17Z" fill="#fff2fe"/></g><rect x="2.33" y="326.65" width="14.86" height="14.86" fill="#ffd4fa"/><g transform="translate(2.33,326.65) scale(0.743) rotate(0)"><path d="M10 5L5 0L0 5L5 10L0 15L5 20L10 15L15 20L20 15L15 10L20 5L15 0L10 5Z" fill="#ffc6f8"/></g><rect x="36.71" y="311.79" width="29.73" height="29.73" fill="#ff7cf0"/><g transform="translate(36.71,311.79) scale(1.4865) rotate(0)"><path fill-rule="evenodd" clip-rule="evenodd" d="M10 20C15.5228 20 20 15.5228 20 10C20 4.47715 15.5228 0 10 0C4.47715 0 0 4.47715 0 10C0 15.5228 4.47715 20 10 20ZM10 17C13.866 17 17 13.866 17 10C17 6.13401 13.866 3 10 3C6.13401 3 3 6.13401 3 10C3 13.866 6.13401 17 10 17Z" fill="#a0d4fe"/></g><rect x="71.1" y="311.79" width="29.73" height="29.73" fill="#9fd3fe"/><g transform="translate(71.1,311.79) scale(1.4865) rotate(0)"><path d="M10 5L5 0L0 5L5 10L0 15L5 20L10 15L15 20L20 15L15 10L20 5L15 0L10 5Z" fill="#ff56eb"/></g><rect x="208.64" y="311.79" width="29.73" height="29.73" fill="#ffc1f8"/><g transform="translate(208.64,311.79) scale(1.4865) rotate(0)"><path d="M10 5L5 0L0 5L5 10L0 15L5 20L10 15L15 20L20 15L15 10L20 5L15 0L10 5Z" fill="#abd9fe"/></g><rect x="243.02" y="311.79" width="29.73" height="29.73" fill="#90cdfe"/><g transform="translate(243.02,311.79) scale(1.4865) rotate(0)"><path d="M10 5L5 0L0 5L5 10L0 15L5 20L10 15L15 20L20 15L15 10L20 5L15 0L10 5Z" fill="#80c6fd"/></g><rect x="311.79" y="311.79" width="29.73" height="29.73" fill="#ffb7f7"/><g transform="translate(311.79,311.79) scale(1.4865) rotate(0)"><path fill-rule="evenodd" clip-rule="evenodd" d="M10 20C15.5228 20 20 15.5228 20 10C20 4.47715 15.5228 0 10 0C4.47715 0 0 4.47715 0 10C0 15.5228 4.47715 20 10 20ZM10 17C13.866 17 17 13.866 17 10C17 6.13401 13.866 3 10 3C6.13401 3 3 6.13401 3 10C3 13.866 6.13401 17 10 17Z" fill="#e9f5ff"/></g><rect x="346.1737278106509" y="311.7891124260355" width="29.7294674556213" height="29.7294674556213" fill="#ffffff"/><rect x="346.17" y="311.79" width="14.86" height="14.86" fill="#e5f3ff"/><g transform="translate(346.17,311.79) scale(0.743) rotate(0)"><path d="M10 5L5 0L0 5L5 10L0 15L5 20L10 15L15 20L20 15L15 10L20 5L15 0L10 5Z" fill="#ff45e9"/></g><rect x="361.04" y="311.79" width="14.86" height="14.86" fill="#ff54eb"/><g transform="translate(361.04,311.79) scale(0.743) rotate(0)"><path d="M10 5L5 0L0 5L5 10L0 15L5 20L10 15L15 20L20 15L15 10L20 5L15 0L10 5Z" fill="#ffedfd"/></g><rect x="346.17" y="326.65" width="14.86" height="14.86" fill="#c2e3fe"/><g transform="translate(346.17,326.65) scale(0.743) rotate(0)"><path fill-rule="evenodd" clip-rule="evenodd" d="M10 20C15.5228 20 20 15.5228 20 10C20 4.47715 15.5228 0 10 0C4.47715 0 0 4.47715 0 10C0 15.5228 4.47715 20 10 20ZM10 17C13.866 17 17 13.866 17 10C17 6.13401 13.866 3 10 3C6.13401 3 3 6.13401 3 10C3 13.866 6.13401 17 10 17Z" fill="#e8f5ff"/></g><rect x="361.04" y="326.65" width="14.86" height="14.86" fill="#ffc0f8"/><g transform="translate(361.04,326.65) scale(0.743) rotate(0)"><path fill-rule="evenodd" clip-rule="evenodd" d="M10 20C15.5228 20 20 15.5228 20 10C20 4.47715 15.5228 0 10 0C4.47715 0 0 4.47715 0 10C0 15.5228 4.47715 20 10 20ZM10 17C13.866 17 17 13.866 17 10C17 6.13401 13.866 3 10 3C6.13401 3 3 6.13401 3 10C3 13.866 6.13401 17 10 17Z" fill="#ff77ef"/></g><rect x="449.33" y="311.79" width="29.73" height="29.73" fill="#84c8fd"/><g transform="translate(449.33,311.79) scale(1.4865) rotate(0)"><path fill-rule="evenodd" clip-rule="evenodd" d="M10 20C15.5228 20 20 15.5228 20 10C20 4.47715 15.5228 0 10 0C4.47715 0 0 4.47715 0 10C0 15.5228 4.47715 20 10 20ZM10 17C13.866 17 17 13.866 17 10C17 6.13401 13.866 3 10 3C6.13401 3 3 6.13401 3 10C3 13.866 6.13401 17 10 17Z" fill="#9ed3fe"/></g><rect x="483.71" y="311.79" width="29.73" height="29.73" fill="#ff50ea"/><g transform="translate(483.71,311.79) scale(1.4865) rotate(0)"><path d="M10 5L5 0L0 5L5 10L0 15L5 20L10 15L15 20L20 15L15 10L20 5L15 0L10 5Z" fill="#fff7fe"/></g><rect x="518.0968047337278" y="311.7891124260355" width="29.7294674556213" height="29.7294674556213" fill="#ffffff"/><rect x="518.1" y="311.79" width="14.86" height="14.86" fill="#ff5bec"/><g transform="translate(518.1,311.79) scale(0.743) rotate(0)"><path fill-rule="evenodd" clip-rule="evenodd" d="M10 20C15.5228 20 20 15.5228 20 10C20 4.47715 15.5228 0 10 0C4.47715 0 0 4.47715 0 10C0 15.5228 4.47715 20 10 20ZM10 17C13.866 17 17 13.866 17 10C17 6.13401 13.866 3 10 3C6.13401 3 3 6.13401 3 10C3 13.866 6.13401 17 10 17Z" fill="#8dcbfe"/></g><rect x="532.96" y="311.79" width="14.86" height="14.86" fill="#ff89f1"/><g transform="translate(532.96,311.79) scale(0.743) rotate(0)"><path fill-rule="evenodd" clip-rule="evenodd" d="M10 20C15.5228 20 20 15.5228 20 10C20 4.47715 15.5228 0 10 0C4.47715 0 0 4.47715 0 10C0 15.5228 4.47715 20 10 20ZM10 17C13.866 17 17 13.866 17 10C17 6.13401 13.866 3 10 3C6.13401 3 3 6.13401 3 10C3 13.866 6.13401 17 10 17Z" fill="#ffbbf7"/></g><rect x="518.1" y="326.65" width="14.86" height="14.86" fill="#ffa2f4"/><g transform="translate(518.1,326.65) scale(0.743) rotate(0)"><path fill-rule="evenodd" clip-rule="evenodd" d="M10 20C15.5228 20 20 15.5228 20 10C20 4.47715 15.5228 0 10 0C4.47715 0 0 4.47715 0 10C0 15.5228 4.47715 20 10 20ZM10 17C13.866 17 17 13.866 17 10C17 6.13401 13.866 3 10 3C6.13401 3 3 6.13401 3 10C3 13.866 6.13401 17 10 17Z" fill="#70befd"/></g><rect x="552.48" y="311.79" width="29.73" height="29.73" fill="#ffacf5"/><g transform="translate(552.48,311.79) scale(1.4865) rotate(0)"><path d="M10 5L5 0L0 5L5 10L0 15L5 20L10 15L15 20L20 15L15 10L20 5L15 0L10 5Z" fill="#ff3ce8"/></g><rect x="586.87" y="311.79" width="29.73" height="29.73" fill="#fff7fe"/><g transform="translate(586.87,311.79) scale(1.4865) rotate(0)"><path d="M10 5L5 0L0 5L5 10L0 15L5 20L10 15L15 20L20 15L15 10L20 5L15 0L10 5Z" fill="#ffe4fc"/></g><rect x="621.25" y="311.79" width="29.73" height="29.73" fill="#78c2fd"/><g transform="translate(621.25,311.79) scale(1.4865) rotate(0)"><path fill-rule="evenodd" clip-rule="evenodd" d="M10 20C15.5228 20 20 15.5228 20 10C20 4.47715 15.5228 0 10 0C4.47715 0 0 4.47715 0 10C0 15.5228 4.47715 20 10 20ZM10 17C13.866 17 17 13.866 17 10C17 6.13401 13.866 3 10 3C6.13401 3 3 6.13401 3 10C3 13.866 6.13401 17 10 17Z" fill="#acd9fe"/></g><rect x="690.0198816568047" y="311.7891124260355" width="29.7294674556213" height="29.7294674556213" fill="#ffffff"/><rect x="704.88" y="311.79" width="14.86" height="14.86" fill="#ff4eea"/><g transform="translate(704.88,311.79) scale(0.743) rotate(0)"><path fill-rule="evenodd" clip-rule="evenodd" d="M10 20C15.5228 20 20 15.5228 20 10C20 4.47715 15.5228 0 10 0C4.47715 0 0 4.47715 0 10C0 15.5228 4.47715 20 10 20ZM10 17C13.866 17 17 13.866 17 10C17 6.13401 13.866 3 10 3C6.13401 3 3 6.13401 3 10C3 13.866 6.13401 17 10 17Z" fill="#ffbff7"/></g><rect x="690.02" y="326.65" width="14.86" height="14.86" fill="#acdafe"/><g transform="translate(690.02,326.65) scale(0.743) rotate(0)"><path fill-rule="evenodd" clip-rule="evenodd" d="M10 20C15.5228 20 20 15.5228 20 10C20 4.47715 15.5228 0 10 0C4.47715 0 0 4.47715 0 10C0 15.5228 4.47715 20 10 20ZM10 17C13.866 17 17 13.866 17 10C17 6.13401 13.866 3 10 3C6.13401 3 3 6.13401 3 10C3 13.866 6.13401 17 10 17Z" fill="#fcfeff"/></g><rect x="704.88" y="326.65" width="14.86" height="14.86" fill="#ffd1fa"/><g transform="translate(704.88,326.65) scale(0.743) rotate(0)"><path d="M10 5L5 0L0 5L5 10L0 15L5 20L10 15L15 20L20 15L15 10L20 5L15 0L10 5Z" fill="#8eccfe"/></g><rect x="35.44" y="344.9" width="32.27" height="32.27" fill="#ddf0ff"/><g transform="translate(35.44,344.9) scale(1.6135000000000002) rotate(0)"><path d="M10 5L5 0L0 5L5 10L0 15L5 20L10 15L15 20L20 15L15 10L20 5L15 0L10 5Z" fill="#aad9fe"/></g><rect x="69.83" y="344.9" width="32.27" height="32.27" fill="#bee1fe"/><g transform="translate(69.83,344.9) scale(1.6135000000000002) rotate(0)"><path d="M10 5L5 0L0 5L5 10L0 15L5 20L10 15L15 20L20 15L15 10L20 5L15 0L10 5Z" fill="#ff7cf0"/></g><rect x="104.21183431952663" y="344.9041420118343" width="32.26863905325444" height="32.26863905325444" fill="#ffffff"/><rect x="104.21" y="344.9" width="16.13" height="16.13" fill="#ddf0ff"/><g transform="translate(104.21,344.9) scale(0.8065) rotate(0)"><path d="M10 5L5 0L0 5L5 10L0 15L5 20L10 15L15 20L20 15L15 10L20 5L15 0L10 5Z" fill="#fff4fe"/></g><rect x="120.35" y="344.9" width="16.13" height="16.13" fill="#ff54eb"/><g transform="translate(120.35,344.9) scale(0.8065) rotate(0)"><path d="M10 5L5 0L0 5L5 10L0 15L5 20L10 15L15 20L20 15L15 10L20 5L15 0L10 5Z" fill="#90cdfe"/></g><rect x="104.21" y="361.04" width="16.13" height="16.13" fill="#c2e3fe"/><g transform="translate(104.21,361.04) scale(0.8065) rotate(0)"><path fill-rule="evenodd" clip-rule="evenodd" d="M10 20C15.5228 20 20 15.5228 20 10C20 4.47715 15.5228 0 10 0C4.47715 0 0 4.47715 0 10C0 15.5228 4.47715 20 10 20ZM10 17C13.866 17 17 13.866 17 10C17 6.13401 13.866 3 10 3C6.13401 3 3 6.13401 3 10C3 13.866 6.13401 17 10 17Z" fill="#ffcaf9"/></g><rect x="120.35" y="361.04" width="16.13" height="16.13" fill="#eaf6ff"/><g transform="translate(120.35,361.04) scale(0.8065) rotate(0)"><path d="M10 5L5 0L0 5L5 10L0 15L5 20L10 15L15 20L20 15L15 10L20 5L15 0L10 5Z" fill="#ff81f0"/></g><rect x="138.59644970414203" y="344.9041420118343" width="32.26863905325444" height="32.26863905325444" fill="#ffffff"/><rect x="138.6" y="344.9" width="16.13" height="16.13" fill="#c9e6fe"/><g transform="translate(138.6,344.9) scale(0.8065) rotate(0)"><path d="M10 5L5 0L0 5L5 10L0 15L5 20L10 15L15 20L20 15L15 10L20 5L15 0L10 5Z" fill="#90cdfe"/></g><rect x="138.6" y="361.04" width="16.13" height="16.13" fill="#8fccfe"/><g transform="translate(138.6,361.04) scale(0.8065) rotate(0)"><path d="M10 5L5 0L0 5L5 10L0 15L5 20L10 15L15 20L20 15L15 10L20 5L15 0L10 5Z" fill="#ffdffb"/></g><rect x="154.73" y="361.04" width="16.13" height="16.13" fill="#fff0fd"/><g transform="translate(154.73,361.04) scale(0.8065) rotate(0)"><path fill-rule="evenodd" clip-rule="evenodd" d="M10 20C15.5228 20 20 15.5228 20 10C20 4.47715 15.5228 0 10 0C4.47715 0 0 4.47715 0 10C0 15.5228 4.47715 20 10 20ZM10 17C13.866 17 17 13.866 17 10C17 6.13401 13.866 3 10 3C6.13401 3 3 6.13401 3 10C3 13.866 6.13401 17 10 17Z" fill="#ffe7fc"/></g><rect x="207.37" y="344.9" width="32.27" height="32.27" fill="#ff6fee"/><g transform="translate(207.37,344.9) scale(1.6135000000000002) rotate(0)"><path d="M10 5L5 0L0 5L5 10L0 15L5 20L10 15L15 20L20 15L15 10L20 5L15 0L10 5Z" fill="#ddefff"/></g><rect x="241.75" y="344.9" width="32.27" height="32.27" fill="#ffc3f8"/><g transform="translate(241.75,344.9) scale(1.6135000000000002) rotate(0)"><path d="M10 5L5 0L0 5L5 10L0 15L5 20L10 15L15 20L20 15L15 10L20 5L15 0L10 5Z" fill="#d2eafe"/></g><rect x="310.52" y="344.9" width="32.27" height="32.27" fill="#67bafd"/><g transform="translate(310.52,344.9) scale(1.6135000000000002) rotate(0)"><path fill-rule="evenodd" clip-rule="evenodd" d="M10 20C15.5228 20 20 15.5228 20 10C20 4.47715 15.5228 0 10 0C4.47715 0 0 4.47715 0 10C0 15.5228 4.47715 20 10 20ZM10 17C13.866 17 17 13.866 17 10C17 6.13401 13.866 3 10 3C6.13401 3 3 6.13401 3 10C3 13.866 6.13401 17 10 17Z" fill="#daeeff"/></g><rect x="344.9" y="344.9" width="32.27" height="32.27" fill="#6abcfd"/><g transform="translate(344.9,344.9) scale(1.6135000000000002) rotate(0)"><path d="M10 5L5 0L0 5L5 10L0 15L5 20L10 15L15 20L20 15L15 10L20 5L15 0L10 5Z" fill="#ff3ee8"/></g><rect x="379.29" y="344.9" width="32.27" height="32.27" fill="#d3ebfe"/><g transform="translate(379.29,344.9) scale(1.6135000000000002) rotate(0)"><path d="M10 5L5 0L0 5L5 10L0 15L5 20L10 15L15 20L20 15L15 10L20 5L15 0L10 5Z" fill="#a8d7fe"/></g><rect x="413.67" y="344.9" width="32.27" height="32.27" fill="#95cffe"/><g transform="translate(413.67,344.9) scale(1.6135000000000002) rotate(0)"><path fill-rule="evenodd" clip-rule="evenodd" d="M10 20C15.5228 20 20 15.5228 20 10C20 4.47715 15.5228 0 10 0C4.47715 0 0 4.47715 0 10C0 15.5228 4.47715 20 10 20ZM10 17C13.866 17 17 13.866 17 10C17 6.13401 13.866 3 10 3C6.13401 3 3 6.13401 3 10C3 13.866 6.13401 17 10 17Z" fill="#ffc9f9"/></g><rect x="448.06" y="344.9" width="32.27" height="32.27" fill="#ff37e7"/><g transform="translate(448.06,344.9) scale(1.6135000000000002) rotate(0)"><path d="M10 5L5 0L0 5L5 10L0 15L5 20L10 15L15 20L20 15L15 10L20 5L15 0L10 5Z" fill="#ff42e9"/></g><rect x="482.44" y="344.9" width="32.27" height="32.27" fill="#f9fcff"/><g transform="translate(482.44,344.9) scale(1.6135000000000002) rotate(0)"><path d="M10 5L5 0L0 5L5 10L0 15L5 20L10 15L15 20L20 15L15 10L20 5L15 0L10 5Z" fill="#f2f9ff"/></g><rect x="551.21" y="344.9" width="32.27" height="32.27" fill="#7cc4fd"/><g transform="translate(551.21,344.9) scale(1.6135000000000002) rotate(0)"><path d="M10 5L5 0L0 5L5 10L0 15L5 20L10 15L15 20L20 15L15 10L20 5L15 0L10 5Z" fill="#68bbfd"/></g><rect x="585.5964497041421" y="344.9041420118343" width="32.26863905325444" height="32.26863905325444" fill="#ffffff"/><rect x="585.6" y="344.9" width="16.13" height="16.13" fill="#ffb4f6"/><g transform="translate(585.6,344.9) scale(0.8065) rotate(0)"><path fill-rule="evenodd" clip-rule="evenodd" d="M10 20C15.5228 20 20 15.5228 20 10C20 4.47715 15.5228 0 10 0C4.47715 0 0 4.47715 0 10C0 15.5228 4.47715 20 10 20ZM10 17C13.866 17 17 13.866 17 10C17 6.13401 13.866 3 10 3C6.13401 3 3 6.13401 3 10C3 13.866 6.13401 17 10 17Z" fill="#69bbfd"/></g><rect x="601.73" y="344.9" width="16.13" height="16.13" fill="#ffa9f5"/><g transform="translate(601.73,344.9) scale(0.8065) rotate(0)"><path fill-rule="evenodd" clip-rule="evenodd" d="M10 20C15.5228 20 20 15.5228 20 10C20 4.47715 15.5228 0 10 0C4.47715 0 0 4.47715 0 10C0 15.5228 4.47715 20 10 20ZM10 17C13.866 17 17 13.866 17 10C17 6.13401 13.866 3 10 3C6.13401 3 3 6.13401 3 10C3 13.866 6.13401 17 10 17Z" fill="#71bffd"/></g><rect x="585.6" y="361.04" width="16.13" height="16.13" fill="#ffabf5"/><g transform="translate(585.6,361.04) scale(0.8065) rotate(0)"><path fill-rule="evenodd" clip-rule="evenodd" d="M10 20C15.5228 20 20 15.5228 20 10C20 4.47715 15.5228 0 10 0C4.47715 0 0 4.47715 0 10C0 15.5228 4.47715 20 10 20ZM10 17C13.866 17 17 13.866 17 10C17 6.13401 13.866 3 10 3C6.13401 3 3 6.13401 3 10C3 13.866 6.13401 17 10 17Z" fill="#ffb0f6"/></g><rect x="601.73" y="361.04" width="16.13" height="16.13" fill="#ffc6f8"/><g transform="translate(601.73,361.04) scale(0.8065) rotate(0)"><path d="M10 5L5 0L0 5L5 10L0 15L5 20L10 15L15 20L20 15L15 10L20 5L15 0L10 5Z" fill="#ffa1f4"/></g><rect x="654.37" y="344.9" width="32.27" height="32.27" fill="#abd9fe"/><g transform="translate(654.37,344.9) scale(1.6135000000000002) rotate(0)"><path d="M10 5L5 0L0 5L5 10L0 15L5 20L10 15L15 20L20 15L15 10L20 5L15 0L10 5Z" fill="#ff98f3"/></g><rect x="688.7502958579882" y="344.9041420118343" width="32.26863905325444" height="32.26863905325444" fill="#ffffff"/><rect x="688.75" y="344.9" width="16.13" height="16.13" fill="#72bffd"/><g transform="translate(688.75,344.9) scale(0.8065) rotate(0)"><path fill-rule="evenodd" clip-rule="evenodd" d="M10 20C15.5228 20 20 15.5228 20 10C20 4.47715 15.5228 0 10 0C4.47715 0 0 4.47715 0 10C0 15.5228 4.47715 20 10 20ZM10 17C13.866 17 17 13.866 17 10C17 6.13401 13.866 3 10 3C6.13401 3 3 6.13401 3 10C3 13.866 6.13401 17 10 17Z" fill="#ff63ed"/></g><rect x="704.88" y="344.9" width="16.13" height="16.13" fill="#79c2fd"/><g transform="translate(704.88,344.9) scale(0.8065) rotate(0)"><path d="M10 5L5 0L0 5L5 10L0 15L5 20L10 15L15 20L20 15L15 10L20 5L15 0L10 5Z" fill="#9dd3fe"/></g><rect x="688.75" y="361.04" width="16.13" height="16.13" fill="#ff6aed"/><g transform="translate(688.75,361.04) scale(0.8065) rotate(0)"><path d="M10 5L5 0L0 5L5 10L0 15L5 20L10 15L15 20L20 15L15 10L20 5L15 0L10 5Z" fill="#bee2fe"/></g><rect x="704.88" y="361.04" width="16.13" height="16.13" fill="#d6ecfe"/><g transform="translate(704.88,361.04) scale(0.8065) rotate(0)"><path fill-rule="evenodd" clip-rule="evenodd" d="M10 20C15.5228 20 20 15.5228 20 10C20 4.47715 15.5228 0 10 0C4.47715 0 0 4.47715 0 10C0 15.5228 4.47715 20 10 20ZM10 17C13.866 17 17 13.866 17 10C17 6.13401 13.866 3 10 3C6.13401 3 3 6.13401 3 10C3 13.866 6.13401 17 10 17Z" fill="#fcfeff"/></g><rect x="0" y="378.23" width="34.38" height="34.38" fill="#ffa6f5"/><g transform="translate(0,378.23) scale(1.719) rotate(0)"><path fill-rule="evenodd" clip-rule="evenodd" d="M10 20C15.5228 20 20 15.5228 20 10C20 4.47715 15.5228 0 10 0C4.47715 0 0 4.47715 0 10C0 15.5228 4.47715 20 10 20ZM10 17C13.866 17 17 13.866 17 10C17 6.13401 13.866 3 10 3C6.13401 3 3 6.13401 3 10C3 13.866 6.13401 17 10 17Z" fill="#ff85f1"/></g><rect x="34.38" y="378.23" width="34.38" height="34.38" fill="#6dbdfd"/><g transform="translate(34.38,378.23) scale(1.719) rotate(0)"><path fill-rule="evenodd" clip-rule="evenodd" d="M10 20C15.5228 20 20 15.5228 20 10C20 4.47715 15.5228 0 10 0C4.47715 0 0 4.47715 0 10C0 15.5228 4.47715 20 10 20ZM10 17C13.866 17 17 13.866 17 10C17 6.13401 13.866 3 10 3C6.13401 3 3 6.13401 3 10C3 13.866 6.13401 17 10 17Z" fill="#d7edfe"/></g><rect x="68.77" y="378.23" width="34.38" height="34.38" fill="#a7d7fe"/><g transform="translate(68.77,378.23) scale(1.719) rotate(0)"><path d="M10 5L5 0L0 5L5 10L0 15L5 20L10 15L15 20L20 15L15 10L20 5L15 0L10 5Z" fill="#ecf6ff"/></g><rect x="103.15" y="378.23" width="34.38" height="34.38" fill="#d4ecfe"/><g transform="translate(103.15,378.23) scale(1.719) rotate(0)"><path d="M10 5L5 0L0 5L5 10L0 15L5 20L10 15L15 20L20 15L15 10L20 5L15 0L10 5Z" fill="#b0dbfe"/></g><rect x="171.92" y="378.23" width="34.38" height="34.38" fill="#ffebfd"/><g transform="translate(171.92,378.23) scale(1.719) rotate(0)"><path fill-rule="evenodd" clip-rule="evenodd" d="M10 20C15.5228 20 20 15.5228 20 10C20 4.47715 15.5228 0 10 0C4.47715 0 0 4.47715 0 10C0 15.5228 4.47715 20 10 20ZM10 17C13.866 17 17 13.866 17 10C17 6.13401 13.866 3 10 3C6.13401 3 3 6.13401 3 10C3 13.866 6.13401 17 10 17Z" fill="#ffe2fc"/></g><rect x="275.08" y="378.23" width="34.38" height="34.38" fill="#86c8fd"/><g transform="translate(275.08,378.23) scale(1.719) rotate(0)"><path fill-rule="evenodd" clip-rule="evenodd" d="M10 20C15.5228 20 20 15.5228 20 10C20 4.47715 15.5228 0 10 0C4.47715 0 0 4.47715 0 10C0 15.5228 4.47715 20 10 20ZM10 17C13.866 17 17 13.866 17 10C17 6.13401 13.866 3 10 3C6.13401 3 3 6.13401 3 10C3 13.866 6.13401 17 10 17Z" fill="#65b9fd"/></g><rect x="309.46" y="378.23" width="34.38" height="34.38" fill="#ff5fec"/><g transform="translate(309.46,378.23) scale(1.719) rotate(0)"><path d="M10 5L5 0L0 5L5 10L0 15L5 20L10 15L15 20L20 15L15 10L20 5L15 0L10 5Z" fill="#7bc3fd"/></g><rect x="343.85" y="378.23" width="34.38" height="34.38" fill="#73c0fd"/><g transform="translate(343.85,378.23) scale(1.719) rotate(0)"><path d="M10 5L5 0L0 5L5 10L0 15L5 20L10 15L15 20L20 15L15 10L20 5L15 0L10 5Z" fill="#ff48e9"/></g><rect x="412.62" y="378.23" width="34.38" height="34.38" fill="#fff1fd"/><g transform="translate(412.62,378.23) scale(1.719) rotate(0)"><path d="M10 5L5 0L0 5L5 10L0 15L5 20L10 15L15 20L20 15L15 10L20 5L15 0L10 5Z" fill="#9ad2fe"/></g><rect x="481.38" y="378.23" width="34.38" height="34.38" fill="#ffb7f6"/><g transform="translate(481.38,378.23) scale(1.719) rotate(0)"><path d="M10 5L5 0L0 5L5 10L0 15L5 20L10 15L15 20L20 15L15 10L20 5L15 0L10 5Z" fill="#ff83f0"/></g><rect x="515.77" y="378.23" width="34.38" height="34.38" fill="#ff53eb"/><g transform="translate(515.77,378.23) scale(1.719) rotate(0)"><path d="M10 5L5 0L0 5L5 10L0 15L5 20L10 15L15 20L20 15L15 10L20 5L15 0L10 5Z" fill="#ff8cf2"/></g><rect x="550.1538461538462" y="378.2307692307693" width="34.38461538461539" height="34.38461538461539" fill="#ffffff"/><rect x="550.15" y="378.23" width="17.19" height="17.19" fill="#ff63ed"/><g transform="translate(550.15,378.23) scale(0.8595) rotate(0)"><path d="M10 5L5 0L0 5L5 10L0 15L5 20L10 15L15 20L20 15L15 10L20 5L15 0L10 5Z" fill="#afdbfe"/></g><rect x="567.35" y="378.23" width="17.19" height="17.19" fill="#ff36e7"/><g transform="translate(567.35,378.23) scale(0.8595) rotate(0)"><path d="M10 5L5 0L0 5L5 10L0 15L5 20L10 15L15 20L20 15L15 10L20 5L15 0L10 5Z" fill="#b2dcfe"/></g><rect x="567.35" y="395.42" width="17.19" height="17.19" fill="#8ccbfe"/><g transform="translate(567.35,395.42) scale(0.8595) rotate(0)"><path d="M10 5L5 0L0 5L5 10L0 15L5 20L10 15L15 20L20 15L15 10L20 5L15 0L10 5Z" fill="#ffb0f6"/></g><rect x="618.9230769230769" y="378.2307692307693" width="34.38461538461539" height="34.38461538461539" fill="#ffffff"/><rect x="636.12" y="378.23" width="17.19" height="17.19" fill="#75c1fd"/><g transform="translate(636.12,378.23) scale(0.8595) rotate(0)"><path d="M10 5L5 0L0 5L5 10L0 15L5 20L10 15L15 20L20 15L15 10L20 5L15 0L10 5Z" fill="#c4e4fe"/></g><rect x="618.92" y="395.42" width="17.19" height="17.19" fill="#fff1fd"/><g transform="translate(618.92,395.42) scale(0.8595) rotate(0)"><path d="M10 5L5 0L0 5L5 10L0 15L5 20L10 15L15 20L20 15L15 10L20 5L15 0L10 5Z" fill="#ffdafb"/></g><rect x="636.12" y="395.42" width="17.19" height="17.19" fill="#74c0fd"/><g transform="translate(636.12,395.42) scale(0.8595) rotate(0)"><path d="M10 5L5 0L0 5L5 10L0 15L5 20L10 15L15 20L20 15L15 10L20 5L15 0L10 5Z" fill="#bce1fe"/></g><rect x="653.31" y="378.23" width="34.38" height="34.38" fill="#cfe9fe"/><g transform="translate(653.31,378.23) scale(1.719) rotate(0)"><path fill-rule="evenodd" clip-rule="evenodd" d="M10 20C15.5228 20 20 15.5228 20 10C20 4.47715 15.5228 0 10 0C4.47715 0 0 4.47715 0 10C0 15.5228 4.47715 20 10 20ZM10 17C13.866 17 17 13.866 17 10C17 6.13401 13.866 3 10 3C6.13401 3 3 6.13401 3 10C3 13.866 6.13401 17 10 17Z" fill="#d1eafe"/></g><rect x="0" y="412.62" width="34.38" height="34.38" fill="#ff36e7"/><g transform="translate(0,412.62) scale(1.719) rotate(0)"><path d="M10 5L5 0L0 5L5 10L0 15L5 20L10 15L15 20L20 15L15 10L20 5L15 0L10 5Z" fill="#8eccfe"/></g><rect x="34.38461538461539" y="412.61538461538464" width="34.38461538461539" height="34.38461538461539" fill="#ffffff"/><rect x="34.38" y="412.62" width="17.19" height="17.19" fill="#f3faff"/><g transform="translate(34.38,412.62) scale(0.8595) rotate(0)"><path d="M10 5L5 0L0 5L5 10L0 15L5 20L10 15L15 20L20 15L15 10L20 5L15 0L10 5Z" fill="#9cd2fe"/></g><rect x="51.58" y="412.62" width="17.19" height="17.19" fill="#bbe0fe"/><g transform="translate(51.58,412.62) scale(0.8595) rotate(0)"><path d="M10 5L5 0L0 5L5 10L0 15L5 20L10 15L15 20L20 15L15 10L20 5L15 0L10 5Z" fill="#ffc0f8"/></g><rect x="34.38" y="429.81" width="17.19" height="17.19" fill="#ff94f2"/><g transform="translate(34.38,429.81) scale(0.8595) rotate(0)"><path fill-rule="evenodd" clip-rule="evenodd" d="M10 20C15.5228 20 20 15.5228 20 10C20 4.47715 15.5228 0 10 0C4.47715 0 0 4.47715 0 10C0 15.5228 4.47715 20 10 20ZM10 17C13.866 17 17 13.866 17 10C17 6.13401 13.866 3 10 3C6.13401 3 3 6.13401 3 10C3 13.866 6.13401 17 10 17Z" fill="#ff89f1"/></g><rect x="68.76923076923077" y="412.61538461538464" width="34.38461538461539" height="34.38461538461539" fill="#ffffff"/><rect x="68.77" y="412.62" width="17.19" height="17.19" fill="#a1d5fe"/><g transform="translate(68.77,412.62) scale(0.8595) rotate(0)"><path d="M10 5L5 0L0 5L5 10L0 15L5 20L10 15L15 20L20 15L15 10L20 5L15 0L10 5Z" fill="#ffcaf9"/></g><rect x="85.96" y="429.81" width="17.19" height="17.19" fill="#ff65ed"/><g transform="translate(85.96,429.81) scale(0.8595) rotate(0)"><path fill-rule="evenodd" clip-rule="evenodd" d="M10 20C15.5228 20 20 15.5228 20 10C20 4.47715 15.5228 0 10 0C4.47715 0 0 4.47715 0 10C0 15.5228 4.47715 20 10 20ZM10 17C13.866 17 17 13.866 17 10C17 6.13401 13.866 3 10 3C6.13401 3 3 6.13401 3 10C3 13.866 6.13401 17 10 17Z" fill="#ffa2f4"/></g><rect x="103.15" y="412.62" width="34.38" height="34.38" fill="#ffe4fc"/><g transform="translate(103.15,412.62) scale(1.719) rotate(0)"><path d="M10 5L5 0L0 5L5 10L0 15L5 20L10 15L15 20L20 15L15 10L20 5L15 0L10 5Z" fill="#addafe"/></g><rect x="137.54" y="412.62" width="34.38" height="34.38" fill="#ff79ef"/><g transform="translate(137.54,412.62) scale(1.719) rotate(0)"><path fill-rule="evenodd" clip-rule="evenodd" d="M10 20C15.5228 20 20 15.5228 20 10C20 4.47715 15.5228 0 10 0C4.47715 0 0 4.47715 0 10C0 15.5228 4.47715 20 10 20ZM10 17C13.866 17 17 13.866 17 10C17 6.13401 13.866 3 10 3C6.13401 3 3 6.13401 3 10C3 13.866 6.13401 17 10 17Z" fill="#ff90f2"/></g><rect x="206.31" y="412.62" width="34.38" height="34.38" fill="#addafe"/><g transform="translate(206.31,412.62) scale(1.719) rotate(0)"><path fill-rule="evenodd" clip-rule="evenodd" d="M10 20C15.5228 20 20 15.5228 20 10C20 4.47715 15.5228 0 10 0C4.47715 0 0 4.47715 0 10C0 15.5228 4.47715 20 10 20ZM10 17C13.866 17 17 13.866 17 10C17 6.13401 13.866 3 10 3C6.13401 3 3 6.13401 3 10C3 13.866 6.13401 17 10 17Z" fill="#a6d7fe"/></g><rect x="240.69" y="412.62" width="34.38" height="34.38" fill="#8acafe"/><g transform="translate(240.69,412.62) scale(1.719) rotate(0)"><path d="M10 5L5 0L0 5L5 10L0 15L5 20L10 15L15 20L20 15L15 10L20 5L15 0L10 5Z" fill="#ffd5fa"/></g><rect x="275.08" y="412.62" width="34.38" height="34.38" fill="#93cefe"/><g transform="translate(275.08,412.62) scale(1.719) rotate(0)"><path fill-rule="evenodd" clip-rule="evenodd" d="M10 20C15.5228 20 20 15.5228 20 10C20 4.47715 15.5228 0 10 0C4.47715 0 0 4.47715 0 10C0 15.5228 4.47715 20 10 20ZM10 17C13.866 17 17 13.866 17 10C17 6.13401 13.866 3 10 3C6.13401 3 3 6.13401 3 10C3 13.866 6.13401 17 10 17Z" fill="#ffa4f4"/></g><rect x="309.46" y="412.62" width="34.38" height="34.38" fill="#ffa7f5"/><g transform="translate(309.46,412.62) scale(1.719) rotate(0)"><path d="M10 5L5 0L0 5L5 10L0 15L5 20L10 15L15 20L20 15L15 10L20 5L15 0L10 5Z" fill="#c5e5fe"/></g><rect x="343.85" y="412.62" width="34.38" height="34.38" fill="#abd9fe"/><g transform="translate(343.85,412.62) scale(1.719) rotate(0)"><path fill-rule="evenodd" clip-rule="evenodd" d="M10 20C15.5228 20 20 15.5228 20 10C20 4.47715 15.5228 0 10 0C4.47715 0 0 4.47715 0 10C0 15.5228 4.47715 20 10 20ZM10 17C13.866 17 17 13.866 17 10C17 6.13401 13.866 3 10 3C6.13401 3 3 6.13401 3 10C3 13.866 6.13401 17 10 17Z" fill="#a6d7fe"/></g><rect x="378.23" y="412.62" width="34.38" height="34.38" fill="#7cc4fd"/><g transform="translate(378.23,412.62) scale(1.719) rotate(0)"><path d="M10 5L5 0L0 5L5 10L0 15L5 20L10 15L15 20L20 15L15 10L20 5L15 0L10 5Z" fill="#ffa8f5"/></g><rect x="515.77" y="412.62" width="34.38" height="34.38" fill="#9ed3fe"/><g transform="translate(515.77,412.62) scale(1.719) rotate(0)"><path fill-rule="evenodd" clip-rule="evenodd" d="M10 20C15.5228 20 20 15.5228 20 10C20 4.47715 15.5228 0 10 0C4.47715 0 0 4.47715 0 10C0 15.5228 4.47715 20 10 20ZM10 17C13.866 17 17 13.866 17 10C17 6.13401 13.866 3 10 3C6.13401 3 3 6.13401 3 10C3 13.866 6.13401 17 10 17Z" fill="#8bcbfe"/></g><rect x="584.54" y="412.62" width="34.38" height="34.38" fill="#ff78ef"/><g transform="translate(584.54,412.62) scale(1.719) rotate(0)"><path d="M10 5L5 0L0 5L5 10L0 15L5 20L10 15L15 20L20 15L15 10L20 5L15 0L10 5Z" fill="#ffcef9"/></g><rect x="618.92" y="412.62" width="34.38" height="34.38" fill="#fcfeff"/><g transform="translate(618.92,412.62) scale(1.719) rotate(0)"><path d="M10 5L5 0L0 5L5 10L0 15L5 20L10 15L15 20L20 15L15 10L20 5L15 0L10 5Z" fill="#e8f5ff"/></g><rect x="687.69" y="412.62" width="34.38" height="34.38" fill="#ff58eb"/><g transform="translate(687.69,412.62) scale(1.719) rotate(0)"><path d="M10 5L5 0L0 5L5 10L0 15L5 20L10 15L15 20L20 15L15 10L20 5L15 0L10 5Z" fill="#91cdfe"/></g></g></svg>